<?xml version="1.0" encoding="UTF-8"?>
<!DOCTYPE svg PUBLIC "-//W3C//DTD SVG 1.1//EN" "http://www.w3.org/Graphics/SVG/1.1/DTD/svg11.dtd">
<!-- Creator: CorelDRAW Home & Student 2018 -->
<svg xmlns="http://www.w3.org/2000/svg" xml:space="preserve" width="200mm" height="200mm" version="1.1" style="shape-rendering:geometricPrecision; text-rendering:geometricPrecision; image-rendering:optimizeQuality; fill-rule:evenodd; clip-rule:evenodd"
viewBox="0 0 20000 20000"
 xmlns:xlink="http://www.w3.org/1999/xlink">
 <defs>
  <style type="text/css">
   <![CDATA[
    .fil0 {fill:#A6A9AA}
   ]]>
  </style>
 </defs>
 <g id="Inhalt">
  <metadata id="CorelCorpID_0Corel-Layer"/>
  <path id="Logo_x0020_Inhalt" class="fil0" d="M8619.42 6967.5c-15.6,298.38 -33.08,420.22 73.64,720.09 40.23,-8.54 20.92,-3.1 47.53,-20.14 6.1,-3.93 22.32,-19.08 30.86,-27.34 74.39,-72.05 87.07,-120.71 161.37,-218.2 89.08,-116.89 180.18,-162.25 245.49,-246.62 80.11,-103.46 223.59,-394.84 176.13,-539.05l-42.1 -137.85c-1.67,-4.25 -6.85,-16.96 -8.87,-20.97 -11.6,-23.12 -7.68,-16.3 -19.23,-30.31 -56.84,34.71 -88.82,85.51 -179.39,112.52 -191.47,57.06 -224.12,17.67 -403.88,177.33 -61.73,54.83 -75.53,115.29 -81.55,230.54zm7779.12 -2883.56c49.71,0 90,40.29 90,90 0,49.71 -40.29,90 -90,90 -49.71,0 -90,-40.29 -90,-90 0,-49.71 40.29,-90 90,-90zm-265.91 -278.47c49.71,0 90,40.29 90,90 0,49.71 -40.29,90 -90,90 -49.71,0 -90,-40.29 -90,-90 0,-49.71 40.29,-90 90,-90zm-5250.3 2155.79l-182.98 -5.75c8.49,47.97 22.82,119.98 29.07,165.03 9.87,70.97 -28.89,292.56 197.77,370.26 112.27,38.49 169.41,21.89 280.12,89.32 74.4,45.31 154.36,153.04 216.64,173.83 41.11,-83.09 15.47,-326.7 -0.28,-405.82 -35.88,-180.22 -179.27,-524.63 -333.7,-568.92 -83.65,-23.99 -290.5,-69.64 -383.12,-59.42 19.27,89.53 169.23,170.53 176.48,241.47zm345.41 1627.33c116.96,-69.61 110.19,-638.87 63.51,-822.44 -24.8,-97.56 -170.22,-168.25 -277.91,-202.15 -66.21,-20.87 -126.37,-17.72 -188.92,-47.61 -53.51,-25.57 -96.37,-82.6 -142.84,-89.58 -9.82,27.05 -9.79,54.21 -16.26,81.8 -31.45,133.54 -75.06,93.68 -21.89,267.45 33.67,110.08 87.47,232.11 149.1,316.69 38.15,52.35 78.85,78.57 115.18,112.88 156.77,147.91 252.22,345.04 320.03,382.96zm-2672.89 -1113.55l11.49 284.55c73.12,-8.79 145.15,-118.17 217.31,-165.28 153.15,-99.92 412.38,-64.21 477.19,-277.14 16.57,-54.43 8.63,-122.73 15.06,-183.23 5.78,-54.26 22,-124.89 30.76,-176.65l-185.7 7.03c7.08,-60.31 157.4,-173.99 184.8,-243.43 -64.6,-18.95 -260.13,21.69 -320.83,36.01 -150.68,35.54 -137.45,47.4 -219.3,156.4 -100.91,134.4 -203.73,358.69 -210.78,561.74zm1436.79 797.3c45.17,-21.04 64.74,-50.96 112.46,-96.85 112.58,-108.3 208.05,-212.52 257.29,-368.09 49.56,-156.65 -51.92,-173.4 -147.24,-235.01 -56.62,-36.59 -69.53,-55.35 -108.97,-95.02 -19.33,-19.45 -32.98,-31.27 -50.15,-51.48 -35.6,-41.89 -11.08,-37.79 -63.39,-58.59 -3.01,1.9 -7.07,1.92 -8.37,6.65l-22.63 20.45c-58.4,58.9 -110.3,126.23 -182.7,174.36 -101.7,67.61 -203.45,80.51 -154.18,238.36 48.37,154.91 264.05,414.78 367.88,465.22zm-664.17 -1127.77c0.19,395.62 58.6,293.41 136.83,566.66 59.69,-14.49 84.44,-58.78 119.87,-94.15 60.39,-60.29 440.23,-267.78 366.6,-433.27 -22.9,-51.46 -48.16,-81.22 -68.29,-145.1 -22.2,-70.47 -61.65,-296.5 -82.14,-335.8 -39.88,19.77 -156.11,121.51 -278.64,175.93 -41.65,18.49 -133.14,36.44 -156.82,72 -14.44,21.64 -37.43,160.64 -37.41,193.73zm1186.35 572.29l116.68 -278.28c25.11,-127.28 40.47,-239.34 18.74,-375.79 -35.74,-224.3 -78.51,-99.64 -341.11,-273.06 -51.86,-34.25 -63.09,-71.12 -125.2,-75.7 -32.37,81.36 -37.69,267.67 -138.56,472.26 -34.69,70.37 -19.72,79.46 21.58,138.81 135.81,195.1 215.32,184.55 339.34,285.25 51.79,42.06 47.21,82.77 108.53,106.51zm-522.18 1378.66c125.73,-58.82 273.12,-233.68 332.4,-380.24 39.9,-98.69 61.41,-76.34 -53.61,-229.45 -35.75,-47.59 -74.55,-95.51 -100.07,-166.15 -5.17,-14.33 -4.98,-17.84 -8.89,-28.98 -1.19,-3.35 -2.24,-6.83 -3.46,-10.1 -1.26,-3.34 -2.82,-7.1 -4.03,-10.12l-9.29 -20.15c-66.53,26.99 -80.72,93 -153.05,122.64 -70.48,-34.4 -81.65,-101.68 -156.04,-122.34 -51.74,145.01 -6.06,88.2 -114.24,230.74 -67.97,89.56 -115.46,109.39 -54.29,237.53 52.79,110.62 58.87,121.62 129.89,214.01 24.53,31.9 155.47,140.58 194.68,162.61zm-711.51 -2222.13c178.99,5.14 459.62,-195.12 582.54,-342.43l128.97 -188.06c38.57,22.49 125.01,219.73 285.87,336.82 75.05,54.66 295.81,200.68 427.2,194.73 -6.09,-42.54 -215.53,-346.77 -272.09,-400.44 -63.65,-60.41 -329.76,-246.74 -440.86,-245.45 -110.13,1.29 -363.39,181.25 -432.45,241.59 -104.03,90.89 -132.62,187.27 -212.79,297.2 -27.64,37.93 -59.33,66.02 -66.39,106.04zm196.97 992.48c-70.63,-36.07 -6.81,0.31 -39.58,-40.36 -2.58,-3.21 -8.81,-12.96 -11.28,-15.81 -20.68,-23.78 10.24,-1.61 -21.23,-19.35l-103.65 258.94c-84.29,168.49 -139.84,111.23 -104.06,232.58 56.75,192.49 147.77,343.01 271.47,437.12 23.46,-17.14 266.59,-373.35 285.09,-435.97 52.05,-176.35 -76.19,-168.72 -158.65,-359.52 -15.21,-35.18 -34.62,-106.4 -49.93,-136.59 -34.13,11.8 -51.22,43.99 -68.18,78.96zm1029.99 -0.05c-9.03,-18.34 -7,-18.75 -22.77,-40.15 -22.84,-31.06 -5.6,-14.27 -33.58,-34.45l-57.14 124.69c-15.44,35.63 -43.69,84.87 -64.07,115.89 -107.72,163.95 -201.22,141.1 34.41,462.43 25.63,34.94 122.62,200.13 150.58,219.87 115.84,-50.07 236.58,-280.74 274.65,-443.46 26.06,-111.49 -19.19,-59.6 -109.64,-232.64 -37.47,-71.69 -63.65,-202.26 -101.24,-254.25 -27.81,30.7 -9.57,18.82 -23.67,40.02 -36.72,55.09 9.66,17.27 -47.53,42.05zm-1000.06 946.04c-60.33,1.49 -46.9,-22.62 -102.02,-31.06 -17.94,40.05 -46.8,144.57 -61.41,190.47 -48.53,152.24 171.72,487.98 265.45,503.92 54.74,-79.79 195.05,-333.67 199.58,-430.42 -169.33,-155.67 -145.35,-213.63 -225.08,-328.97 -41.99,14.16 -49.38,50.24 -76.52,96.06zm867.21 661.93c73.4,-21.68 190.58,-182.81 233.36,-284.69 27.09,-64.51 56.95,-142.98 37.3,-209.26 -11.33,-38.24 -51.73,-175.77 -66.61,-200.1 -56.09,13.32 -36.5,28.45 -89.27,32.02l-77.89 -106.55c-34.85,45.67 -64.01,131.55 -104.76,194.89 -116.59,181.3 -184.91,82.9 -39.63,380.23l107.5 193.46zm795.51 -2719.44c-98.93,-222.32 -400.66,-455.99 -657.57,-534.56 -62.32,-19.07 -280.31,-66.65 -346.08,-48.43 -3.8,54.9 36.24,66.69 82.68,93.28 49,28.08 76.61,50.71 120.81,83.32 100.81,74.39 130.11,107.98 193.57,214.29 64.92,108.74 173.84,89.42 292.96,116.01 61.99,13.8 287.11,79.84 313.63,76.09zm-2344.01 0.31c54.18,-7.41 209.54,-62.18 325.68,-81.23 136.85,-22.47 210.35,-2.87 280.97,-120.75 77.42,-129.22 183.24,-212.36 312.62,-292.05 36.52,-22.5 95.32,-47.35 109.97,-82.93 -103.81,-82.84 -487.86,77.71 -620.88,148.69 -121.96,65.09 -363.94,279.89 -408.36,428.27zm1969.15 2350.27c135.16,-44.55 266.41,-525.73 181.68,-688.35 -26.92,-51.66 -84.73,-143.73 -145.32,-172.67 -2.04,2.99 -4.98,4.12 -5.58,9.33l-75.57 219.01c-107.4,260.64 -189.42,144.39 -79.48,430.14 21.56,56.03 89.89,162.16 124.27,202.54zm-1848.48 -485.2c0.09,165.1 125.78,525.35 244.89,529.57 26.6,-46.03 16.2,-50.42 50.87,-96.42 55.96,-74.25 123.1,-283.81 80.4,-345.38 -79.43,-114.5 -136.18,-179.09 -188.17,-341.69 -14.92,-46.7 -0.36,-26.03 -25.1,-65.51 -67.06,16.17 -79.26,62.92 -116.28,120.27 -59.68,92.44 -46.69,68.3 -46.61,199.16zm1023.54 1187.11c114.93,-23.47 270.12,-214.36 298.52,-268.14 32.65,-61.87 -2.3,-109.21 -47.96,-199.23 -32.65,-64.37 -46.89,-148.63 -92.02,-194.67 -71.95,35.13 -84.67,100.93 -142.69,128.64 -54.05,-36.81 -67.83,-99.61 -142.68,-126.81 -26.14,39.6 -57.27,132.82 -84.12,184.11 -29.59,56.55 -86.03,125.64 -51.18,201.4 10.68,23.24 94.84,124.35 118.66,154.21 34.26,42.93 97.39,87.78 143.47,120.49zm105.9 -3820.55c-45.75,126.13 -40.3,140.35 -135.38,99.9 75.31,-287.23 117.27,-480.16 -20.04,-776.11 -38.42,-82.8 -116.33,-185.91 -121.45,-211.73 20.26,-26.25 83.41,-73.39 117.69,-100.66 90.11,37.7 182.1,346.24 197.14,431.9 27.54,156.64 25.88,380.76 -37.96,556.7zm-203.58 629.84c8.66,116.26 62.18,423.99 119.37,485.3 41.52,-22.62 152.65,-425.28 110.96,-488.49l-98.2 -121.04c-71.81,26.62 -71.5,83.87 -132.13,124.23zm2832.88 526.7l23.43 211.2c4.15,61.79 -17.18,88.24 -27.89,143.17 -52.43,-288.49 -10.58,-384.9 -243.67,-641.02 -39.71,-43.63 -90.61,-111.3 -167.43,-110.78 3.46,48.43 54.49,168.6 67.75,246.71 35.79,210.43 5.78,486.74 202.41,616.78 34.61,22.87 72.9,34.71 99.02,52.95 -30.57,86.54 -50.24,186.46 -88.6,269.96l-10.51 19.48c-20.56,-26.58 -33.96,-217.72 -104.27,-364.67 -48.18,-100.72 -130.87,-233.74 -221.51,-249.51 28.64,231.4 18.12,394.52 30.65,623.56 9.83,181 95.76,206.44 174.28,295.51 -0.91,37.71 -69.15,192.92 -90.15,218.23l-13.16 -29.58c-32.22,-130.68 12.43,-163.46 -89.05,-374.06 -23.19,-48.14 -117.33,-183.44 -159.24,-185.66 -11,83.25 9.72,177.34 1.1,263.98 -15.03,151.14 -63.94,339.22 -23.5,484.42 37.22,133.6 78.27,105.07 108.17,192.91 -13.46,51.04 -75.24,168.17 -114.4,205.4l-2.54 -265.51c-5.83,-109.91 -95.52,-296.28 -160.19,-338.8l-16.66 55.1c-27.18,153.7 -37.61,255.1 -78.88,417.22 -93.92,368.97 60.44,366.98 63.27,446.13 -18.31,54.01 -119.47,178.72 -148.28,207.75 5.96,-56.37 20.14,-103.57 26.71,-167.08 6.45,-62.31 2.89,-130.22 -3.47,-193.51 -10.03,-100.03 -63.41,-241.09 -122.05,-283.23 -24.58,54.37 -35.08,175.46 -54.31,240.41 -22.98,77.65 -56.08,143.21 -80.23,215.75 -38.01,114.26 -90.26,238.21 -49.7,359.98 22.74,68.3 31.73,55.01 57.79,103.09 -20.54,40.74 -130.06,165.55 -176.8,194.71 22.48,-162.26 76.94,-180.48 64.82,-400.76 -4.59,-83.05 -34.96,-199.76 -81.57,-247.96l-9.85 17.96c-9.84,21.43 -87.41,237.53 -136.04,328.66 -67.23,125.96 -151.71,251.11 -143.3,410.85 3.6,68.57 27.02,82.03 37.79,143.73 -36.75,60.21 -361.32,294.33 -446.16,346.04 -217.74,132.76 -347.35,178.68 -491.88,255.62 -17.43,6.78 -36.94,15.54 -60.39,25.41 -23.89,10.03 -51.89,21.2 -79.74,32.41 -162.4,-66.51 -332.73,-149.18 -448.18,-221.29 -148.91,-93.06 -512.89,-327.6 -572.91,-429.1 13.13,-93.17 57.71,-153.12 29.89,-265.77 -36.54,-148.02 -185.63,-340.72 -239.42,-514.54 -12.87,-41.58 -17.76,-77.24 -32.92,-114.45 -81.16,20.64 -96,211.85 -94.65,306.87 0.72,51.45 10.41,118.48 20.18,170.84 11.37,60.94 39.81,115.88 43.51,165.96 -54.64,-24.41 -146.33,-141.91 -175.44,-183.05 74.04,-195.31 127.69,-144.62 10.73,-465.98 -24.28,-66.75 -62.15,-147.45 -82.59,-213.57 -15.46,-50.02 -40.45,-224.16 -54.82,-249.29 -131.32,108.85 -147.93,397.23 -110.2,560.95l1.39 66.57c-0.56,1.89 -2.09,6.17 -4,8.75 -319.19,-359.57 74.74,-96.3 -68.62,-639.59 -19.61,-74.37 -46.55,-164.03 -58.43,-240.01 -5.77,-36.89 -22.13,-252.33 -25.21,-258.9 -55.95,21.73 -124.26,179.71 -143.32,241.24 -39.98,129.09 -41.02,220.33 -38.24,361.14 -37.78,-25.38 -119.51,-152.7 -108.26,-200.43 37.63,-59.37 74.86,-72.08 107.33,-165.43 41.96,-120.68 -9.44,-355.24 -24.18,-485.78 -10.05,-88.98 7.08,-174.66 2.64,-265.64 -130.94,7.46 -237.29,354.14 -242.51,484.6 -0.15,3.67 -3.79,52.62 -3.97,53.22 -12.61,43.61 2.31,19.3 -26.58,46.51 -28.86,-74.13 -81.21,-161.42 -75.53,-244.39 227.63,-116.75 164.29,-421.51 175.65,-659.56 5.48,-114.53 36.06,-168.33 42.83,-243.26 -88.14,-6.11 -188.14,155.01 -229.38,235.19 -77.63,150.96 -80.42,207.6 -96.57,395.93 -37.41,-37.2 -49.8,-93.47 -65.49,-141.17 -15.8,-48.02 -41.45,-117.85 -45.62,-164.39 265.55,-88.19 259.7,-394.93 291.94,-643.07 13.18,-101.5 58.77,-180.08 66.94,-264.93 -114.42,11.6 -232.21,175.89 -282.24,266.41 -87.37,158.13 -102.45,235.38 -113.41,451.13 -40.84,-33.4 -40.62,-85.77 -31.22,-133.38 11.1,-56.32 14.7,-119.96 15.56,-179.56 1.58,-111.35 -35.56,-192.53 -69.39,-287.03 -47.47,-132.62 -113.43,-261.02 -144.54,-399.71 -11.43,-50.98 -13.21,-101.58 -31.88,-145.42 -100.88,38.69 -144.71,633.05 75.71,1013.5 40.25,69.45 35.16,48.09 46.97,130.43 -115.17,-92.89 -243.43,-363.97 -470.34,-399.73 9.71,46.89 28.08,75.5 52.77,124.42 111.41,220.66 179.72,571.72 399.74,695.18 51.71,29.02 104.66,23.82 149.16,43.11 28.76,35.85 79.4,174.45 90.49,233.77 -104.29,-42.28 -277.08,-355.98 -581.66,-399.89 12.04,65.91 99.77,169.73 136.36,235.53 39.69,71.38 98.8,160.79 140.81,237.48 44.67,81.53 108.19,154.64 159.76,208.15 104.47,108.4 171.76,61.85 294.17,78.97 28.58,40.41 135.04,272.1 139.02,301.67 -169.45,-162.62 -410,-382.09 -654.46,-388.53 10.82,58.65 249.5,349.65 311.1,417.76 190.24,210.34 179.49,265.81 498.28,231.54 37.97,91.41 120.9,206.86 172.81,289.2 -146.04,-103.72 -476.03,-341.15 -712.08,-303.91 1.23,23.86 481.54,498 559.2,538.4 152.7,79.38 218.83,18.23 317.69,5.65 41.86,39.33 167.59,177.42 178.03,232.64 -166.77,-58.11 -274.54,-156.7 -485,-177.05 -32.79,-3.17 -73.09,-4.57 -106.62,-6.39 -11.52,-0.62 -42.5,-2.14 -52.67,-0.89 -17,2.1 28.06,-29.19 -47.19,14.14 18.61,35.41 360.61,286.14 404.83,321.6 302.28,242.37 379.03,137.65 520.58,95.74 35.5,23.81 199.41,172.89 216.36,215.53 -88.51,-14.31 -230.93,-84.65 -345.65,-107.13 -102.84,-20.16 -330.09,-44.82 -388.83,12.17l458.35 275c208.25,111.68 333.04,178.84 527.98,21.44 36.45,14.9 210.94,145.29 265.26,182.29 91.31,62.19 192.07,122.3 293.55,176.84 71.4,38.38 146.27,75.14 223.56,109.82 -22.12,8.69 -40.05,17.54 -50.17,21.05 -144.13,49.85 -444.25,128 -599.55,154.23 -67.81,11.43 -95.3,21.14 -171.56,26.2 -78.66,5.22 -90.94,24.23 -156.49,28.81 -128.08,8.99 -489.43,30.99 -628.18,16.02 -24.29,-2.62 -170.59,-4 -185.04,-1.07 -1.39,60.01 -6.23,62.38 10.67,113.71 325.22,10.64 482.04,-2.47 796.59,-24.34 287.64,-20.01 887.2,-150.23 1129.4,-272.9 223.22,89.15 460.29,159.59 688.36,200.58 441.74,79.41 424.19,66.68 870.39,91.5 155.42,8.65 279.78,-13.96 428.58,-11.2l-5.4 -113.52c-94.48,-9.58 -570.4,60.11 -914.62,-10.04 -141.85,-28.9 -294.11,-41.5 -436.42,-75.03 -139.56,-32.93 -261.6,-71.02 -391.39,-110.92 -30.83,-9.47 -63.74,-20.49 -98.06,-32.75 44.03,-18.7 87.09,-37 116.82,-49.69l14.11 -6.03c24.19,-7.89 46.23,-17.52 62.36,-25.75 77.87,-39.77 152.86,-79.84 227.69,-121.41 100.16,-55.63 355.39,-256.73 427.2,-268.24 62.09,11.24 171.64,221.67 630.21,-100.37l255.56 -149.16c59.5,-28.31 64.16,-7.23 80.16,-69 -249.04,-80.76 -602.64,78.87 -731.29,109.98 22.33,-43.15 67.97,-77.14 101.45,-105.65 41.95,-35.73 59.15,-73.6 105.47,-106.52 12.02,-3.3 143.94,48.08 227.44,43.57 227.39,-12.21 452.05,-274.35 641.56,-406.57 45.43,-31.72 70.79,-25.49 86.55,-71.84 -120.13,-64.47 -432.33,49.24 -558.69,110.77 -48.95,23.84 -105.4,62.27 -158.48,73.72 19.67,-44.3 153.61,-213.68 186.5,-235.39 272.33,89.1 342.34,-16.9 499.04,-156.3 96.22,-85.62 182.26,-193.49 278.59,-277.39 43.01,-37.47 70.71,-52.01 84.95,-104.19 -283.32,4.74 -492.18,147.12 -697.94,298.53 54.46,-102.67 118.34,-182.37 172.77,-285.75 262.88,11.03 246.82,58.52 490.43,-215.44 94.35,-106.15 155.6,-204.37 239.55,-312.98 35.35,-45.74 74.35,-58.08 77.96,-118.73 -145.74,4.06 -264.95,72.54 -363.39,138.31 -102.12,68.24 -219.13,186.89 -283.44,226.87 12.55,-45.75 110.52,-256.84 145.68,-295.85 138.1,16.79 232.26,-4.27 328.27,-111.44 39.54,-44.18 111.78,-158.33 136.01,-203.97 25.43,-47.88 36.99,-60.94 64.5,-106.52l180.28 -314.54c-142.73,-23.06 -550.94,324.49 -584.83,426.42 14.8,-39.41 27.06,-91.97 42.54,-136.85 16.95,-49.04 45.47,-92 55.27,-150.14 226.55,-30.34 300.32,-126.89 388.86,-329.94 32.27,-74.03 205.76,-457.94 203.21,-511.19 -183.87,14.19 -332.66,261.5 -441.54,378.99 -10.5,-78.95 100.1,-234.78 130.56,-330.78 62.81,-198.14 65.64,-374.02 54.91,-577.61 -2.68,-50.61 -30.51,-198.05 -63.79,-227.41 -35.07,29.71 -8.94,-5.45 -23.36,45.02 -42.83,150.16 -42.74,196.99 -110.6,367.86 -40.88,102.87 -130.41,296.33 -124.9,414.25zm-8990.73 3362.56l69.28 -27.01c21.43,-7.64 10.41,-2.81 27.72,-11.09 74.88,-35.79 224.25,-53.39 317.58,-79.77 180.91,-51.11 437.77,-64.3 653.19,-49.41l296.6 39.9c95.91,15.08 181.91,46.29 265.91,83.09l19.17 7.84c71.23,26.47 153.02,40.01 214.48,84.08 59.33,42.55 29.41,31.28 110.52,61.46 76.99,28.65 142.58,90.75 211.26,141.81 101.35,75.34 182.58,159.04 267.07,245.27l108.9 112.81c1.48,2.28 3.25,5.8 4.69,8.17 1.49,2.43 3.21,5.96 4.68,8.43 150.09,252.61 283.54,514.5 346.69,806.33 28.44,131.44 81.24,519.19 34.59,628.63 -25.03,-31.03 -23.34,-101.02 -30.87,-136.83 -11.75,-55.84 -24.61,-84.4 -45.51,-123.8 -146.22,-14 -264.37,119.69 -362.28,198.72l-92.15 106.53c-210.13,288.84 -160.47,438.38 -225.16,527.77 -103.69,11.64 -167.45,-6.51 -265.67,4.98 -96.79,11.32 -179.01,15.34 -264.9,29.05 -92.58,14.78 -160.26,27.23 -245.03,49.12l-102.35 43.41c-40.47,20.97 -113.86,36.5 -159.64,65.12l-172.87 89.72c-18.45,10.07 -31.83,17.89 -50.71,29.15 -34.74,20.71 -47.75,34.08 -85.1,61.84 -91.2,67.75 -180.97,120.59 -267.7,179.7 -385.69,-815.97 -601.62,-1727.91 -601.62,-2690.4 0,-166.47 6.56,-331.4 19.23,-494.62zm2853.65 5783.38l70.85 -138.73c12.34,-32.33 16.91,-77.09 33.46,-108.4 100,6.64 79.28,202.3 155.38,252.83 89.94,59.7 19.1,-196.94 149.17,-226.92 68.76,-15.84 66.16,8.56 90.58,32.01l263.42 195.68c48.32,40.75 85.91,48.79 133.6,89.77 48.64,41.8 85.75,62.64 175.37,57.78 99,-5.36 170.17,-41.69 237.35,-106.4 42.54,-40.99 16.15,-29.14 89.58,-39.06 60.46,-8.17 80.87,-29.01 129.26,-52.12 46.1,-22.03 47.75,-78.01 92.73,-114.48 138.31,-112.07 189.15,-112.67 142.14,-339.83l-94.83 -369.43c-86.07,-274.79 -66.82,-424.39 -217.01,-709.77 -13.47,-25.61 -20.66,-40.15 -34.21,-69.86 -67.84,-148.84 -136.54,-249.15 -152.52,-427.01l-29.9 -144.35c-15.59,-60.96 -70.54,-149.04 -73.16,-221.67l53.73 -397.34c16.37,-70.96 4,-142.47 11.07,-222.93 12.84,-146.08 -13.56,-89.7 -30.86,-188.57 -16.88,-96.42 -9.22,-283.99 -33.7,-437.09 -17.77,-111.04 40.35,-106.27 7.27,-195.57 -27.58,-74.41 -35.44,-68.31 -62.04,-164.18l-44.91 -192.15c-4.7,-26.45 -11.44,-66.62 -18.59,-90.8 -14.05,-47.51 -17.78,-26.04 -18.86,-96.42 -2.57,-166.35 -13.74,-88.4 -58.39,-170.4 -37.52,-68.89 -112.95,-447.58 -177.54,-517.17 -38.93,-41.95 -22.29,-10.44 -42.31,-71.12 -12.36,-37.54 -19.33,-50.72 -36.2,-85.92 -28.87,-60.31 -46.37,-92.34 -78.96,-147.11 -44.74,-75.13 -15.85,-103.95 -76.49,-163l-221.95 -238.82c-36.65,-40.11 -76.74,-66.16 -113.51,-110.22 -53.48,-64.07 -18.46,-83.5 -117.61,-121.33 -148.15,-56.53 -181.79,-125.16 -289.03,-167.41 -88.74,-34.99 -46.15,-43.61 -148.07,-77.81 -46.95,-15.75 -121.29,-40.75 -162.64,-70.74l-305.75 -148.75 -378.38 -81.5c-72.46,-10.85 -133.57,-8.39 -203.6,-19.22 -64.04,-9.9 -126.35,-41 -188.19,-44.43 -114.54,-6.35 -348.09,8.69 -449.1,21.14 -69.92,8.6 -151.45,-9.53 -216.56,9.81l-93.54 27.6c-138.35,25.75 -283.74,60.14 -424.05,108.34 562.13,-2905.95 3119.28,-5100.51 6189.44,-5100.51 3070.13,0 5627.29,2194.56 6189.41,5100.5 -140.31,-48.19 -285.69,-82.59 -424.04,-108.36l-93.54 -27.59c-65.11,-19.33 -146.65,-1.2 -216.57,-9.82 -101.01,-12.43 -334.56,-27.46 -449.09,-21.13 -61.84,3.43 -124.16,34.53 -188.2,44.44 -70.03,10.83 -131.14,8.37 -203.61,19.21l-378.37 81.5 -305.74 148.75c-41.36,30 -115.7,54.99 -162.65,70.74 -101.92,34.21 -59.33,42.83 -148.07,77.82 -107.24,42.25 -140.88,110.88 -289.04,167.42 -99.14,37.83 -64.12,57.25 -117.6,121.32 -36.77,44.06 -76.86,70.11 -113.52,110.22l-221.95 238.82c-60.63,59.05 -31.73,87.85 -76.48,163 -32.59,54.77 -50.1,86.8 -78.97,147.11 -16.86,35.2 -23.83,48.38 -36.19,85.92 -20.02,60.68 -3.39,29.17 -42.31,71.12 -64.58,69.58 -140.02,448.27 -177.55,517.17 -44.63,81.99 -55.81,4.04 -58.39,170.4 -1.08,70.38 -4.81,48.91 -18.84,96.42 -7.16,24.18 -13.9,64.36 -18.6,90.8l-44.92 192.15c-26.59,95.88 -34.46,89.77 -62.03,164.18 -33.08,89.3 25.03,84.52 7.27,195.57 -24.49,153.11 -16.82,340.68 -33.7,437.09 -17.31,98.87 -43.71,42.49 -30.86,188.58 7.07,80.45 -5.3,151.96 11.05,222.92l53.74 397.34c-2.61,72.63 -57.56,160.71 -73.15,221.67l-29.9 144.35c-15.99,177.86 -84.68,278.17 -152.52,427.02 -13.56,29.71 -20.74,44.24 -34.21,69.85 -150.19,285.39 -130.95,434.99 -217.01,709.78l-94.83 369.43c-47.01,227.16 3.83,227.76 142.14,339.83 44.98,36.47 46.63,92.44 92.73,114.48 48.39,23.11 68.8,43.94 129.26,52.11 73.42,9.93 47.03,-1.92 89.57,39.07 67.18,64.71 138.37,101.03 237.36,106.4 89.62,4.85 126.72,-15.99 175.37,-57.79 47.69,-40.98 85.28,-49.01 133.6,-89.76l263.42 -195.68c24.42,-23.46 21.82,-47.86 90.58,-32.02 130.07,29.99 59.24,286.62 149.17,226.93 76.11,-50.54 55.38,-246.19 155.37,-252.84 16.56,31.31 21.13,76.07 33.47,108.4l70.83 138.69c-826.16,537.11 -1785.9,886.16 -2818.63,985.87 0.99,-38.69 1,-81.76 -0.2,-129.97 -11.54,-463.6 -149.39,-359.9 -296.27,-462.23 -2.15,-103.26 -11.93,-394.49 8.85,-469 120.8,-30.26 1079.15,357.92 1103.38,-212.09 18.59,-437.71 -467.06,-378.84 -766.97,-322.23 -96.84,18.25 -243.2,66.95 -330.36,65.83 -123.17,-183.04 -374.61,-214.28 -535.39,-114.34 -63.86,39.69 -80.7,88.76 -131.3,122.53 -288.55,-84.72 -1104.42,-290.77 -1094.46,221.9 10.25,528.49 730.3,307.3 1022.17,238.56 153.51,-36.15 99.39,119.62 99.39,482.35 -243.95,26.94 -292.22,212.58 -295.08,462.28 -0.45,38.57 -2.2,77.94 -2.99,117.14 -1035.53,-98.77 -1997.88,-448.17 -2825.97,-986.55zm9717.51 -5783.39l-69.28 -27.01c-21.43,-7.65 -10.41,-2.82 -27.73,-11.09 -74.88,-35.78 -224.25,-53.38 -317.58,-79.77 -180.91,-51.11 -437.77,-64.3 -653.19,-49.41l-296.59 39.89c-95.91,15.09 -181.91,46.3 -265.92,83.1l-19.17 7.84c-71.23,26.47 -153.02,40.01 -214.48,84.07 -59.33,42.55 -29.41,31.29 -110.52,61.47 -76.99,28.65 -142.57,90.75 -211.26,141.81 -101.35,75.34 -182.57,159.04 -267.07,245.27l-108.89 112.81c-1.49,2.28 -3.26,5.79 -4.7,8.17 -1.49,2.42 -3.21,5.96 -4.68,8.42 -150.09,252.62 -283.54,514.51 -346.69,806.35 -28.44,131.43 -81.24,519.18 -34.59,628.62 25.02,-31.02 23.33,-101.02 30.87,-136.82 11.75,-55.85 24.61,-84.4 45.51,-123.8 146.22,-14.01 264.37,119.68 362.28,198.72l92.16 106.52c210.12,288.84 160.47,438.38 225.15,527.77 103.69,11.64 167.45,-6.51 265.67,4.99 96.79,11.31 179.01,15.33 264.9,29.04 92.58,14.78 160.26,27.21 245.03,49.12l102.35 43.41c40.47,20.97 113.87,36.51 159.64,65.12l172.87 89.72c18.46,10.07 31.84,17.88 50.72,29.15 34.73,20.71 47.73,34.08 85.1,61.84 91.2,67.74 180.96,120.61 267.7,179.72 385.69,-815.97 601.62,-1727.91 601.62,-2690.41 0,-166.48 -6.55,-331.4 -19.23,-494.63zm-6877.63 6956.72c3.89,16.47 8.75,32.58 14.83,48.2 54.93,141.37 117.14,107.61 184.42,192.52 11.26,127.38 -7.03,301.54 -4.78,450.43 -186.35,-5.36 -412.66,-18.17 -477.49,-36.75l-359.84 -44.87 -421.32 -110.93c-43.6,-14.51 -67.73,-9.85 -112.87,-28.5l-709.6 -212.1c-41.88,-17.2 -55.06,-24.96 -102.49,-39.76 -34.97,-10.9 -62.71,-21.94 -93.31,-35.71 -67.33,-30.34 -183.66,-61.41 -227.74,-106.88 -2.64,-2.72 -32.02,-40.82 -32.65,-41.84 -42.7,-71.17 2.95,-147.95 25.22,-207.43 25.92,-69.21 39.48,-137.61 75.98,-203.79l14 -23.38c1.39,-2.42 3.08,-5.81 4.49,-8.24l47.2 -81.14c11.28,-21.01 20.78,-31.97 30.31,-45.67 58.39,-0.46 226.81,71.3 292.71,91.42 139.49,42.58 149.38,56.07 301.29,95.31l455.93 124.15c73.49,31.87 3.66,7.5 79.56,19.16 44.6,6.85 33.27,18.25 76.19,24.76 117.37,17.79 203.46,51.22 321.71,64.69l330.71 62.81c83.14,8.28 191.26,38.58 287.54,53.54zm202.39 809.04c2.37,17.17 5.36,33.57 9.07,48.96 45.6,188.82 194.61,215.28 400.81,223.1 259.46,9.8 352.11,-110.33 380.07,-264.9 85.48,-9.28 168.74,-23.18 248.71,-39.55 34.89,-7.14 78.19,-4.3 114.35,-7.66 74.94,-7.01 100.69,-26.54 192.95,-33.02 113.15,-7.97 458.52,-94.39 612.69,-120.67l232.98 -60.68c172.98,-30.52 357.3,-88.73 526.2,-140.65l268.33 -88.78c118.14,-46.27 242.31,-68.07 356.52,-118.96 65.86,-29.34 101.97,-60.26 126.56,-112.16 28.58,-13.47 57.16,-26.88 85.53,-40.69 24.87,13.73 51.53,13.29 83.17,11.22 57.98,-3.83 16.19,2.67 59.06,-17.87l138.36 -80.02c161.53,-89.75 314.3,-193.67 463.38,-299.87l422.42 -312.81c148.68,-114.3 316.93,-236.89 450.82,-368.68l413.43 -367.62c88.38,-70.56 166.53,-162.97 247.4,-240.88l131.32 -150.92c36.74,-49.62 38.53,-15.49 52.37,-87.68 5.32,-27.74 6,-39.77 4.19,-46.51 14.73,-18.21 29.52,-36.39 44.08,-54.74 47.39,2.14 78.1,-12.76 129.52,-69.94l115.97 -161.96c21.59,-33.82 28.65,-57.48 50.64,-93.33 14.02,-22.92 12.83,-22.92 29.67,-47.02l229.54 -387.1c70.88,-99.85 167.53,-312.1 226.49,-436.03 1.36,-2.85 2.94,-5.99 4.21,-8.87l235.26 -507.04c1.77,-3.86 7.48,-14.83 9.08,-18.89l20.04 -58.97c9.77,-23.78 -2.06,7.82 11.91,-27.93l24.59 -48.55c1.25,-2.1 3.6,-4.94 4.8,-7.16 51.47,-95.96 73.92,-214.22 120.35,-305 13.89,-27.11 4.32,-6.58 11.98,-26.21l62.92 -177.15c12.04,-36.45 17.82,-66.17 30.88,-103.19 17.14,-48.64 15.85,-59.18 30.82,-112.05l24.33 -47c0.59,-1.57 11.78,-48.82 12.38,-51.69 8.31,-39.28 6.81,-97.52 -12.02,-134.48 6.06,-25.64 11.9,-51.37 17.68,-77.11l23.71 -4.16c87.15,-52.42 109.93,-451.69 112.54,-559.95 2.18,-90.44 17.49,-111.28 19.99,-191.84 8.29,-264.31 18.01,-541.84 19.61,-819.25 0.01,-5.76 0.21,-11.47 0.21,-17.22 0,-2.56 -0.11,-5.1 -0.11,-7.65 1.2,-298.83 -7.39,-597.09 -37.75,-878.1 -7.27,-67.32 -8.57,-134.8 -14.78,-200.8 -8.31,-88.36 -26.63,-309.8 -54.18,-390.68 -10.1,-29.64 -34.99,-50.68 -58.35,-65.12 -5.75,-26.56 -11.27,-53.2 -17.33,-79.65 5.79,-5.21 11.35,-13.14 16.88,-29.47 43.41,-127.9 -70.32,-375.24 -116.59,-507.48 -11.17,-31.92 4.99,7.05 -10.79,-24.95 -1.15,-2.35 -3.46,-5.27 -4.66,-7.62l-28.23 -62.06c-22.39,-41.94 -7.3,0.25 -20.5,-40.97 -14.46,-45.09 -16.04,-50.74 -33.57,-96.55 -32.54,-85.01 -56.43,-169.92 -99.47,-247.22 -58.99,-105.85 -90.04,-230.7 -152.11,-336.68l-225.97 -466.77c-22.37,-37.91 -22.93,-39.89 -41.79,-86.96 -3.83,-9.64 -1.9,-8.43 -11.35,-22.43l-43.93 -61.49c-18.69,-37.21 -26.72,-51.74 -47.36,-91.44l-413.07 -676.42c-28.07,-32.58 -39.5,-42.09 -83.76,-61.87 -24.06,-10.74 -16.16,-10.71 -35.74,-15.62 -19.59,-25.04 -39.59,-49.73 -59.5,-74.52 3.5,-75.82 -3.7,-100.19 -67.3,-168.06l-349.93 -352.55c-31.04,-41.82 5.15,-5.99 -38.03,-40.04 -15.88,-12.52 -22.31,-17.51 -35.81,-28.43 -1.98,-1.6 -20.97,-16.45 -21.23,-16.7l-330.96 -279.81c-87.04,-77.23 -175.96,-152.4 -266.67,-225.45l-61.15 -51.71c-88.02,-62.75 -167.08,-145.59 -262.76,-203.02l-580.04 -403.06c-21.32,-10.88 -3.99,-0.01 -26.87,-13.48l-200.39 -119.45c-29.84,-22.02 5.16,-3.75 -37.89,-25.78 -77.59,-39.7 -117.51,-38.45 -148.74,-27.94 -30.44,-15.13 -60.81,-30.4 -91.49,-45.13 -7.51,-41.21 -23.44,-62.37 -74.37,-90.73 -29.95,-16.65 -64.13,-30.76 -85.79,-39.44l-268.74 -94.45c-57.91,-15.72 -108.43,-43.14 -169.25,-60.54 -70.88,-20.26 -119.82,-35.13 -182.65,-57.2l-752.44 -194.62c-44.63,-7 -60.44,-17.4 -92.99,-24.08 -23.7,-4.88 -48.18,-4.84 -71.89,-6.4 -64.69,-12.96 -129.72,-24.92 -195,-36.16 -2.5,-1.65 -15.84,-12.33 -30.33,-16.86 -32.46,-10.17 -167.23,-25.61 -203.57,-31.57 -114.31,-18.77 -246.11,-25.27 -362.92,-57.4 -53.81,-14.81 -116.3,-12.85 -173.29,-13.56 -118.24,-1.45 -282.98,-71.71 -382.22,14.98 -27.85,-0.32 -55.59,-1.06 -83.48,-1.06 -5.28,0 -10.48,0.2 -15.75,0.2 -12.74,-15.57 -26.73,-31.37 -44.01,-44.88 -306.35,-21.85 -592.84,56.37 -868.57,88.33l-116.01 14.63c-35.54,5.32 -61.3,18.07 -89.68,24.63 -73.01,16.86 -129.09,22.01 -205.03,35.22l-205.3 45.17c-8.07,2.61 -15.82,5.06 -23.34,7.37 -99.6,21.99 -198.44,45.97 -296.46,72.01l-254.33 60.63c-18.98,5.5 -22.91,13.03 -43.54,21.49l-313.91 93.53c-129.38,42.16 -240.67,80.71 -356.12,120.01 -194.27,66.15 -209.46,88.37 -222.43,135.97 -32.6,15.2 -65.24,30.28 -97.56,45.93 -10.2,-2.89 -24.89,-5 -47.23,-5.85 -132.69,-5.05 -231.11,111.34 -335.48,171.21 -0.87,0.5 -12.71,6.22 -23.72,12.7l-352.81 226.44c-2.32,1.7 -5.42,3.74 -7.71,5.43l-14.9 11.2c-30.34,23.23 -50.96,35.6 -79.59,59.2l-128.95 100.92c-352.77,246.48 -682.79,523.29 -985.83,827.11l-345.04 317.71c-106.21,108.25 -118.39,123.76 -122.09,197.8 -26.88,32.7 -53.33,65.78 -79.67,98.93 -26.76,2.04 -50.79,7.85 -69.75,23.66 -98.87,82.44 -149.1,206.54 -223.08,311.5l-66.02 111.96c-1.49,2.54 -3.55,5.56 -5.1,8.16 -7.95,13.29 -2.92,3.57 -16.08,26.71 -115.71,203.51 -243.46,406.52 -341.35,618.78 -138.2,259.52 -260.93,528.49 -367.27,805.59l-31.65 77.3c-0.96,3.06 -2,6.43 -3.02,9.49l-14.15 38.58c-17.97,52.37 -25.67,59.5 -46.22,113.14l-126.23 339.32c-1.05,2.79 -2.56,6.03 -3.66,8.88l-33.37 95.05c-30.62,76.83 -41.51,152.98 -18.45,208.59 -9.95,41.28 -19.54,82.69 -28.78,124.24 -44.71,22.4 -58.8,69.79 -71.27,130.25 -14.47,70.18 -14.84,164.98 -28.61,228.66 -10.53,48.68 -20.87,19.41 -24.98,106.7 -13.99,298.26 -40.12,524.43 -45.5,859.28 -0.98,61.49 -2.18,148.6 -2.52,246.85 0,2.18 -0.1,4.31 -0.1,6.49l0.06 3.76c-0.73,261.95 5.04,598.72 38.02,743.58l0.23 1.17c1.56,15.13 3.53,30.15 5.17,45.25 13.11,161.08 28.75,643.73 107.03,741.62 7.43,9.28 13.17,16.13 17.75,21.19 7.45,34.06 14.86,68.12 22.8,101.98 -39.46,60.12 -15.87,112.24 8.22,183.61 6.3,18.72 7.03,33.42 13.55,54.79l215.63 606.29c23.84,72.57 105.76,243.74 164.85,371.04 95.42,220.4 201.47,435.05 317.49,643.45l153.02 285.1c116.05,205.77 248.12,394.87 375.12,586.55 25.7,38.78 56.78,68.67 103.33,78.71 21.49,27.4 43.52,54.32 65.42,81.39 -11.73,70.45 16.22,99.79 66.43,157.9 1.86,2.14 4.1,5.17 5.91,7.3 15.16,17.59 15.99,17.81 30.43,32.61 113.88,116.73 275.78,301 400.84,393.44 29.95,22.16 8.85,8.1 41.62,36.84l244.27 216.35c38.66,32.77 -7.26,-9.4 21.92,18.02l217.2 178.99c2.84,2.28 10.61,8.64 13.53,10.86 2.04,1.58 5.02,3.85 7.11,5.39l24.25 18.06c45.01,36.55 90.49,72.55 136.38,108.03 3.85,3.08 7.6,5.94 11.63,8.9 69.9,53.83 140.57,106.68 212.45,157.95 7.79,7.47 12.4,13.84 20.05,20.4l290.55 209.2c11.54,7.26 41.27,21.07 52.94,28.18l27.91 22.29c1.88,1.5 4.77,4.05 6.67,5.52 110.65,85.37 245.33,139.36 360.71,225.18l50.8 29.34c110.35,48.07 104.16,79.42 188.16,56.5 32,15.82 64.05,31.54 96.32,46.88l7.19 23.99c50.4,90.99 171.47,108.9 252.84,138.32l366.22 129.63c182.18,58.54 365.36,105.32 549.53,145.97 64.33,17.77 129.05,34.56 194.09,50.57 50.12,15.8 100.47,31.54 156.33,41.08l93.12 15.9c170.79,35.65 343.86,65.05 518.82,88.52l140.64 23.98c48.91,5.12 47.89,19.17 104.71,28.87l110.86 12.78c46.98,6.54 134.14,18.47 222.43,27.91zm800.45 -122.08c0.71,-178.32 -41.76,-366.99 -1.48,-448.09 47.46,-95.51 146.58,-34.65 186.97,-243.36 263.53,-39.42 592.12,-99.42 677.82,-120.49l370.51 -90.24c50.28,-14.72 28.29,-14.93 90.77,-24.23 57.06,-8.52 51.17,-18.95 91.19,-26.11 90.23,-16.15 73.11,-4.97 184.41,-46.55l417.95 -121.79c2,-0.91 4.9,-3.13 6.86,-4.11 2.02,-1 4.87,-3.36 6.95,-4.37 2.16,-1.03 5.13,-3.27 7.45,-4.25 31.12,-13.15 58.42,-12.03 92.87,-26.06 10.64,-4.33 20,-8.53 36.23,-14.54l43.63 -18.85c40.57,-19.24 61.98,-17.79 108.83,-14.26l268.15 547.02c-52.07,64.11 -98.27,67.06 -224.54,117.94l-749.67 283.71c-62.82,13.67 -131.29,23.15 -194.65,42.38 -119.33,36.17 -261.74,47.27 -379.19,79.29l-598.04 95.14c-67.01,6.93 -275.05,32.19 -443.02,41.82zm-5456.08 -11340.79l64.11 2.25c19.38,-22.6 29.25,-36.29 55.56,-58.33l480.79 -444.86c3.68,-3.05 24.59,-20.24 24.78,-20.43l125.91 -109.66c182.13,-148.71 359.32,-312.62 554.4,-441.74 103.12,-68.24 267.38,-204.7 401.29,-292.24l279.98 -182.6c39.37,-20.42 -24.94,12.21 38.59,-15.2l36.58 -22.86c26.69,-19.91 53.2,-35.35 77.27,-51.31 0.02,-72.18 -61.88,-192.21 -95.52,-251.13l-83.73 -130.66c-89.14,-110.71 -112.4,-241.4 -350.54,-71.68l-186.42 105.77c-31.48,18.59 -77.75,39.67 -107.16,60.76 -24.4,17.47 -30.37,29.87 -48.92,42.48l-431.82 296.57c-15.1,11.53 -2.28,2.09 -13.37,9.68l-437.27 322.42c-17.83,13.32 -1.45,1.94 -20.37,18.36l-721.91 739.04c-85.71,100.08 -141.21,120.62 12.73,217.77l318.55 248.18c2.19,1.88 5.13,4.63 7.1,6.48 15.07,14.23 4.76,8.8 19.39,22.94zm5180.65 -2956.61c-5.12,100.36 -42.42,592.32 30.56,624.2l560.95 88.35c127.44,28.08 507.06,82.28 596.03,109.26 19.62,5.94 13.37,6.45 38.1,14.2l450.97 100.21c22.59,6.32 48.56,13.03 73.86,21.83l233.69 67.91c37.83,10.28 100.43,25.84 148.17,42.61 51.55,18.1 99.69,40.26 147.89,53.09l306.65 111.06c66.35,2.23 98.54,-110.55 120.52,-152.59 29.57,-56.63 151.18,-321.12 130.3,-394.97 -0.67,-2.39 -17.81,-35.59 -21.2,-40.77 -48.75,-74.16 -288.12,-141.51 -336.98,-165.27l-81.05 -33.17c-3.3,-0.98 -6.84,-1.71 -10.04,-2.78 -3.08,-1.05 -6.41,-2.37 -9.37,-3.53 -33.08,-12.88 4.8,0.09 -25.72,-13.1l-106.59 -34.86c-51.13,-20.5 -109.25,-22.01 -165.67,-38.34 -25,-7.27 -80.41,-25.16 -107.61,-34.72l-977.57 -253.37c-134.36,-39.37 -369.77,-34.43 -514.22,-50.43 -11.3,-1.25 -20.21,-3.34 -34.69,-4.5l-199.15 -7.65c-83.6,-11.22 -167.38,-29.55 -247.83,-2.67zm-7297.3 7382.09c0.12,142.08 16.27,537.35 50.96,644.41l108.08 602.86c53.2,-9.98 104.93,-20.12 151.74,-28.96 11.56,-2.2 24.45,-2.69 33.6,-4.51l20.32 -4.46c3.96,-1.16 14.37,-5.74 18.13,-7.16l150.11 -41.47c65.38,-16.48 127.78,-5.92 243.03,-53.48 15.17,-92.37 -36.47,-420.55 -39.98,-491.38 -4.21,-85.07 1.21,-184.26 -8.85,-266.95 -52.56,-432.25 -8.81,-966.15 9.16,-1398.15 10.49,-251.82 5.51,-86.25 28.41,-265.99 6.93,-54.47 -9.45,-92.88 15.41,-162.92l10.63 -25.09c4.05,-18.74 1.04,-50 0.03,-69.46 -50.9,-38.28 -41.08,-19.18 -104.11,-46.27 -63.04,-27.08 -337.94,-58.09 -428.09,-54.94 -64.04,2.25 -86.09,23.72 -106.33,55.57 -26.17,41.2 -42.23,191.27 -76.21,319.27 -6.79,25.57 -6.96,53.17 -8.48,81.28 -22.02,409.15 -67.92,804.63 -67.56,1217.8zm1952.69 4678.38c0.69,0.64 19.13,15.55 22.18,18.37 1.78,1.69 4.53,4.21 6.21,5.88l21.7 25.12c2.37,2.67 9.56,10.63 12.04,13.4l132.54 126.54c40.47,31.29 66.96,42.83 105.88,89.76l452.73 413.76c13.92,11.03 21.52,17.99 36.11,31.29l251.76 200.03c110.63,111.08 538.83,338.94 696.39,426.91l233.72 133.47c72.88,3.96 108.22,-165.34 165.34,-267.65l69.74 -146.86c14.31,-30.09 15.91,-41.65 32.11,-73.08 21.88,-42.42 23.11,-31.12 28.6,-74l-126.91 -101.98c-167.59,-90.81 -398.67,-278.05 -546.01,-375.73 -2.39,-1.6 -5.75,-3.42 -8.22,-5.02l-204.77 -154.6c-2.42,-1.85 -5.66,-4.11 -8.03,-6.03l-115.86 -88.95c-106.04,-80.21 -219.91,-165.78 -321.49,-257.49l-310.76 -274.09c-125.3,-98.73 -63.69,-59.75 -154.52,-142.38l-144.88 -138.92c-85.8,-87.36 -103.32,-137.32 -159.34,-131.81 -30.84,3.04 -209.05,146.78 -247.55,187.81 -22.33,23.79 -48.53,42.08 -70.53,70.06 -72.05,91.61 -93.23,72.71 -109.49,175.81 9.92,18.87 5.53,21.86 21.44,45l239.87 275.38zm10413.91 -8882.6c3.58,88.69 63.84,137.21 89.71,185.15l179.27 319.62c1.49,2.05 4.26,4.62 5.8,6.69l33.95 57.9c71.67,151.62 175.49,317.18 263.45,505.76l57.11 107.85c6.13,14.97 5.73,19.33 13.74,37.38l366.26 839.15 104.58 344.2 43.08 30.67c71.43,20.45 415.88,-108.79 452.49,-123.62 118.78,-48.16 51.43,-29.3 118.35,-79.41 -23.02,-198.93 5.29,-34.98 -35.51,-199.81 -11.72,-47.3 -33.16,-157.66 -48.55,-196.58 -11.49,-29 -24.85,-42.8 -34.45,-78.98 -34.21,-128.79 -12,-42.69 -68.56,-186.4l-349.23 -844.6c-93.41,-186.05 -185.79,-373.85 -305.32,-540.66l-63.82 -104.59c-1.54,-2.35 -3.82,-5.47 -5.33,-7.8l-146.71 -196.83c-137.32,-164.49 -129.76,-361.53 -335.87,-159.96 -79.19,77.44 -163.87,132.39 -218.86,180.22 -30.6,26.61 -33.47,25.13 -57.59,43.47 -2.25,1.72 -5.23,4.2 -7.43,5.98 -2.23,1.78 -5.32,4.16 -7.47,5.98l-13.51 12.07c-19.93,19.61 -10.38,7.94 -29.58,37.15zm-27.22 7946.98c10.97,54.28 35.73,75.1 104.47,133.14l221.22 141.74c55.44,28.06 41.11,48.08 85.35,62.91 24.29,8.18 101.34,12.05 124.14,-0.17l73.12 -83.49c88.87,-89.65 230.29,-345.66 293.87,-437.08 22.9,-32.93 36.51,-100.18 103.19,-191.41l106.57 -182.45c1.74,-2.8 13.39,-20.57 15.55,-24.63l33.98 -71.96c1.32,-2.77 2.68,-6.25 3.97,-8.98l61.83 -104.6c1.27,-2.59 2.73,-5.89 3.99,-8.47 92.72,-187.55 253.76,-481.93 318.61,-679.47 11.65,-35.53 27.2,-72.71 36.44,-102.58 25.57,-82.55 43.43,-151.25 65.97,-231.07 0.94,-3.28 1.92,-6.44 2.74,-9.87 0.87,-3.61 1.45,-6.85 2.22,-10.63l28.67 -101.57c23.51,-70.17 89.76,-286.02 89.01,-334.86 -64.19,-55.49 -51.13,-28.07 -136.7,-51.12 -92.41,-24.89 -185.28,-26.56 -313.47,-72.84 -20.6,-7.45 -11.74,-4.95 -35.09,-11.22l-41.9 -10.32c-33.28,-8.35 -42.29,-12.17 -75.55,-12.55 -46.36,49.35 -47.18,87.36 -69.62,157.57l-291.46 720.56c-14.78,31.3 -18.65,43.39 -31.64,71.37l-109.15 232.67c-86.79,196.43 -196.34,372.59 -263.93,517.36 -6.88,14.73 -36.51,82.19 -36.95,83.15 -15.14,32.12 2.25,-2.66 -18.09,32.56l-268.59 445.77c-34.51,41.45 -66.33,88.02 -82.77,142.54zm-8130.52 -10510.5c-28.53,58.37 -3.01,100.59 27.53,153.76l177.44 358.77c9.76,20.22 23.14,53.5 36.19,75.87 55.43,5.27 55.25,4.47 119.89,-19.67l186.79 -67.52c47.64,-14.39 85.77,-33.46 144.55,-47.2l638.38 -164.04c15.61,-2.71 29.53,-3 43.9,-6.81l24.06 -9.71c108.95,-42.6 420.12,-104.14 569.16,-132.75 128.67,-24.7 46.04,7.34 176.6,-30.56 54.42,-15.79 28.6,7.58 118.5,-21.78l133.22 -17.9c40.94,-4.56 63.04,-9.01 91.26,-14.28l280.88 -28.66c44.06,-6.21 54.8,1.89 84.77,-15.65l15.44 -26.41c44.16,-109.11 18.2,-258.6 2.2,-371.17 -4.77,-33.46 -3.11,-79.3 -9.43,-107.96 -6.37,-28.99 -19.75,-56.05 -23.3,-92.11 -91.34,-29.95 -35.2,-42.52 -174.84,-39.44 -137.29,3.02 -407.69,8.62 -536.3,51.6l-436.32 65.7c-189.59,22.29 -342.25,66.6 -498.35,100.01l-216.15 53.14c-68.71,22.93 -272.93,69.19 -346.44,103.83 -19.4,9.14 -44.47,23.65 -68.53,33.31 -29.78,11.98 -55.72,17.1 -84.47,29.9l-388.1 160.6c-30.81,10.34 -63.75,15.29 -88.53,27.13zm-3367.26 4939.71l247.59 -635.73c4.93,-12.4 11.14,-25.72 15.84,-36.9l52.19 -112.4c27.78,-58.16 -24.16,57.61 13.91,-36.75 1.22,-2.96 2.28,-6.57 3.54,-9.48 1.24,-2.89 2.95,-6.2 4.26,-9.01l9.11 -16.19c1.29,-2.53 3.2,-5.67 4.51,-8.22 58.59,-113.98 146.53,-345.71 207.56,-460.62l530.26 -929.75c15.19,-25.61 26.46,-49.65 42.95,-73.51 18.75,-27.12 26.66,-38.65 38.1,-73.25 -9.89,-16.67 -12.35,-29.26 -27.78,-45.5l-35.13 -27.24c-2.35,-1.9 -5.3,-4.42 -7.63,-6.37 -2.27,-1.91 -5.13,-4.45 -7.34,-6.36 -32.81,-28.46 -61.82,-58.17 -87.97,-73.88 -59.01,-35.46 -249.65,-189.63 -330.84,-183.97 -79.39,5.52 -200.61,208.7 -246.58,275.42l-522.66 900.17c-7.84,16.1 0.32,0.91 -13.79,25.35l-91.81 179.88c-53.17,99.09 -166.62,364.99 -203.72,488.21 -30.68,101.88 -20.99,-4.63 -41.63,125.85l-43.85 132.17c-63.93,226.92 -38.8,204.13 -119.32,394.9 -44.07,104.41 25.51,103.95 53.28,113.9 140.59,50.39 78.26,1.65 205.58,40.45 2.4,0.74 29.13,8.74 29.27,8.78 87,22.2 243.73,71.83 322.1,60.05zm9293.23 -4209.1l416.61 270.71c8,5.91 19.43,15.17 29.37,24.25l339.6 248.84c2.46,1.59 5.55,3.68 7.98,5.28 2.36,1.53 5.29,3.75 7.61,5.27l809.21 662.74c14.63,13.67 16.26,15.48 33.94,31.32l316.59 310.54c9.06,9.11 18.8,20.37 30.11,32.04 71.37,73.58 52.03,128.48 253.17,-35.72l117.39 -110.12c1.87,-1.93 4.63,-4.57 6.46,-6.46 1.77,-1.78 4.32,-4.51 6.05,-6.24l65.32 -64.92c15.18,-15.74 28.2,-31.43 35.26,-40.15 28.28,-34.91 44.43,-53.07 35.87,-104.09 -7.8,-46.44 -35.08,-75.44 -52.07,-100.3l-114.42 -125.54c-24.64,-23.73 -16.89,-18.82 -37.18,-42.92l-148.67 -157.43c-12.7,-12.27 -27.72,-27.02 -39.4,-36.47l-69.99 -57.54c-2.74,-2.41 -11.05,-9.35 -13.8,-11.79l-616.6 -552.89c-29.4,-25.37 -61.1,-45.31 -85.28,-66.39 -13.06,-11.4 -25.37,-24.85 -39.98,-35.47l-272.07 -199.87c-2.39,-1.55 -5.81,-3.2 -8.28,-4.76 -3.32,-2.07 -13.68,-8.33 -17.07,-10.51 -5.42,-3.5 -15.07,-10.72 -24.32,-16.55 -24.69,-15.59 -32.32,-17.52 -48.34,-27.81l-241.12 -143.79c-116.04,-69.46 -117.5,-45.09 -251.32,-133.69l-155.76 -87.25c-28.85,14.68 -31.05,19.49 -49.53,49.11 -57.62,92.25 -62.89,143.39 -104.61,232.1 -55.3,117.55 -132.45,224.71 -120.73,306.47zm-47.07 11651.27c11.25,57.64 24.16,71.76 45.03,111.65l102.63 206.19c58.05,102.18 129.77,233.56 271.47,174.93 83.5,-34.55 321.54,-178.04 385.74,-217.61l712.87 -502.81c158.32,-107.61 307.91,-233.75 446.52,-360.06l204.77 -205.06c49.36,-53.38 89.18,-93.46 140.18,-154.77l128.21 -143.77c7.86,-9.31 7.07,-9.73 15.07,-20.19 33.61,-43.97 6.89,-12.87 37.78,-41.32 1.85,-1.71 4.78,-4 6.61,-5.71l50.12 -50.02c131.06,-130.98 -160.69,-216.4 -316.11,-377.04 -24.86,-25.7 -84.34,-87.08 -127.29,-84.72 -32.15,1.78 -377.89,347.5 -409.2,376.38l-178.4 155.85c-1.78,1.92 -4.12,4.94 -5.9,6.85l-25.36 24.58c-2.06,1.7 -5.08,3.92 -7.2,5.64l-515.68 418.74c-71.48,57.94 -139.97,92.88 -207.64,154.84 -63.44,58.1 -155.9,112.07 -221.17,161.04l-474.46 308.77c-42.01,25.43 -31.15,10.89 -58.59,57.62zm3481.44 -7184.52c-16.79,76 2.59,241.03 14.68,318.93l39.52 661.62c1.94,118.9 6.19,240.5 2.89,359.1 -6.39,230.48 -12.78,472 -16.2,692.7l-64.51 640.35c1.78,2.12 33.38,44.98 33.99,46.07 83.71,8.59 158.1,44.75 252.6,58.62 221.65,32.53 357.51,78.11 382.14,-156.17 9.87,-93.72 27.53,-190.83 45.3,-277.78 31.58,-154.56 30.56,-420.69 48.62,-578.19 27.45,-239.49 40.73,-1017.52 -13.83,-1275.49l-70.51 -334.91c-18.23,-83.94 -8.67,-166.9 -26.62,-249.49 -17.56,-80.77 -201.47,-0.59 -291.05,22.88l-337.02 71.76zm-13229.44 3514.24c39.88,137.62 113.04,284.57 163.97,402.7 1.24,2.88 2.73,6.05 3.81,9.03 14.21,38.96 -1.68,25.49 30.22,95.98l127.84 309.18c1.23,3.01 2.48,6.42 3.64,9.49 7.08,18.56 6.74,26.64 17.12,47.14l23.19 38.37c4.68,8.92 8.67,17.17 12.86,26.82l45.83 108.13c15.32,52.85 29.16,56.1 63.28,129.5 13.6,29.23 23.75,55.95 40.02,85.91 16.72,30.91 30.51,49.48 43.75,88.43 13.65,40.13 27.32,48.89 48.65,76.93l96.67 158.61c58.46,104.3 141.17,205.15 211.47,301.61 41.72,57.25 77.03,104.44 107.92,152.39 18.38,28.56 27.62,47.71 48.67,76.26l60.13 62.16 63.82 -9.51c33.6,-44.05 69.51,-54.89 101.71,-86.05 2.03,-1.95 4.81,-4.66 6.91,-6.72 96.04,-94.06 181.35,-142.05 247.86,-201.67 1.86,-1.68 4.7,-4.38 6.56,-6.13l61.14 -56.85c2.72,-68.02 -2.13,-48.87 -32.61,-95.2 -46.46,-70.54 -95.11,-173.8 -146.08,-237 -19.39,-24.07 -28.18,-62.99 -41.17,-88.97l-399.44 -752.42c-65.99,-95.03 -6.72,-27.19 -53.41,-117.62l-372.03 -867.01c-44.41,-107.65 -56.36,-256.75 -121.89,-268.62 -131.79,-23.87 -327.34,66.02 -410.7,96.17 -60.4,21.85 -135.71,28.49 -151.48,100.3 -22.02,100.19 60.83,311.9 91.77,418.66zm6665.8 3514.46l325.02 -5.54c14.83,-110.86 3.75,-223.93 1.02,-335.58 -187.71,28.63 -138.02,38.15 -330.24,-0.02l4.2 341.14zm69.83 -950.51c-325.75,121.2 -129.46,596.82 185.29,477.52 289.34,-109.63 168.02,-608.97 -185.29,-477.52zm-373.35 1362.62c0,174.05 -29.35,349.77 69.37,410.48 0.03,-156.33 1.81,-270.34 76.56,-376.1 145.07,-205.28 452.43,-221.14 632.55,-7.9 94.95,112.42 82.32,212.57 82.32,385.06 99.3,-44.35 66.74,-284.33 66.74,-452.35 0,-284.31 -225.98,-228.64 -584.94,-228.64 -259.65,0 -342.6,2.57 -342.6,269.45zm866.58 -1204.92l-5.31 167.69c218.21,48.06 874.58,277.7 883.92,-78.32 5.7,-217.58 -200.55,-223.31 -394.85,-202.39 -121.51,13.09 -406.52,56.41 -483.76,113.02zm-801.39 165.42l4.74 -170.98c-197.73,-66.6 -888.55,-265.03 -890.79,81.11 -2.42,379.4 662.46,133.37 886.05,89.87zm345.67 1061.79c-272.35,69.77 -194.07,408.3 -197.26,698.82 -6.05,550.41 -36.48,588.34 320.21,574.05 179.52,-7.2 179.7,-90.89 185.74,-260.66 5.68,-159.84 21.25,-747.13 -26.55,-867.68 -37.95,-95.66 -148.97,-178.66 -282.14,-144.53zm-6022.46 -1284.72l-147.09 23.11c8.12,-49.91 -10.99,-107.42 -57.22,-172.41 -43.88,-61.72 -105.64,-93.83 -185.26,-96.65 -79.61,-2.83 -158.73,23.87 -237.68,80.01 -78.95,56.14 -128.7,119.03 -149.08,188.55 -20.39,69.51 -8.8,134.73 34.59,195.74 49.66,69.81 113.38,106.51 191.45,110.43l-62.51 136.59c-95.35,-12.92 -179.73,-70.99 -253.4,-174.59 -73.55,-103.43 -96.72,-207.91 -69.5,-313.43 27.1,-105.7 99.5,-200.26 216.89,-283.75 109.27,-77.71 223.18,-110.97 342.02,-99.69 118.55,11.22 213.12,66.46 283.61,165.58 60.42,84.98 91.48,165.15 93.18,240.51zm-1874.52 -7403.82l200.46 68.84 103.45 -301.27 129.62 44.52 -103.43 301.27 392.48 134.77 -52.34 152.44 -858.21 -294.7 194.12 -565.32 135.64 46.57 -141.79 412.88zm1106.92 -718.51l-195.04 -16 -130.12 284.27 140.82 134.47 -74.46 162.71 -685.58 -712.97 29.58 -64.61 988.75 50.6 -73.95 161.53zm-676.85 -64.15l258.95 239.24 91.28 -199.43 -350.23 -39.81zm362.06 -1146.49l82.75 123.79c-48.7,13.58 -92.89,55.1 -132.45,124.32 -37.58,65.75 -40.79,135.28 -9.92,208.73 30.87,73.44 88.32,134.05 172.42,182.11 84.1,48.08 162.07,66.82 233.73,56.13 71.64,-10.7 125.96,-48.59 163.1,-113.59 42.53,-74.38 49.08,-147.63 19.84,-220.13l150.2 -0.64c28.34,91.98 11.06,192.95 -52.04,303.32 -62.96,110.17 -148.07,175.06 -255.25,194.68 -107.32,19.79 -223.53,-6.2 -348.59,-77.68 -116.43,-66.54 -194.43,-155.95 -234.13,-268.55 -39.59,-112.29 -29.15,-221.33 31.19,-326.94 51.74,-90.5 111.48,-152.36 179.15,-185.55zm1132.66 -127.08l-333.46 -236.21 -208.34 294.1 333.46 236.22 -93.16 131.51 -740.44 -524.51 93.16 -131.53 289.97 205.41 208.35 -294.1 -289.98 -205.42 92.44 -130.47 740.44 524.53 -92.44 130.47zm572.12 -652.25l-296.68 -281.05 -247.87 261.67 296.68 281.03 -110.85 117.01 -658.75 -624.05 110.84 -116.99 257.97 244.38 247.89 -261.67 -257.99 -244.38 109.97 -116.09 658.75 624.04 -109.96 116.1zm-94.25 -565.68c-85.21,-97.15 -130.76,-202.67 -136.47,-316.67 -5.7,-113.98 36.12,-210.01 125.32,-288.24 98.13,-86.04 199.83,-121.5 305.08,-106.06 105.27,15.46 206.07,78.13 302.44,188.02 96.36,109.89 145.89,220.91 148.28,333.03 2.38,112.12 -46.28,211.92 -145.98,299.35 -91.61,80.32 -189.93,109.99 -294.98,89.02 -105.03,-21.29 -206.22,-87.28 -303.69,-198.45zm125.96 -110.44c69.87,79.68 137.49,129.53 202.87,149.56 65.23,20.17 123.75,7.65 175.28,-37.53 60.58,-53.13 87.88,-115.04 82.17,-185.7 -5.69,-70.68 -44.32,-146.8 -115.86,-228.38 -140.16,-159.84 -269.16,-187.93 -387.01,-84.59 -54.07,47.41 -76.46,105.29 -67.48,173.92 9.16,68.51 45.87,139.56 110.03,212.72zm912.25 -1203.13l22.24 147.22c-49.84,-8.41 -107.49,10.36 -172.75,56.19 -61.97,43.52 -94.44,105.11 -97.73,184.69 -3.3,79.6 22.92,158.89 78.6,238.16 55.69,79.27 118.29,129.41 187.69,150.2 69.39,20.77 134.66,9.56 195.94,-33.47 70.09,-49.24 107.18,-112.74 111.55,-190.79l136.21 63.29c-13.47,95.28 -72.06,179.33 -176.07,252.41 -103.84,72.93 -208.46,95.47 -313.83,67.64 -105.54,-27.72 -199.67,-100.64 -282.46,-218.53 -77.08,-109.73 -109.66,-223.84 -97.7,-342.63 11.91,-118.47 67.72,-212.71 167.24,-282.62 85.32,-59.92 165.69,-90.52 241.07,-91.76zm1087.44 380.49l-190.73 -361.43 -318.77 168.22 190.73 361.42 -142.55 75.21 -423.49 -802.51 142.54 -75.23 165.85 314.29 318.77 -168.22 -165.86 -314.28 141.44 -74.63 423.49 802.52 -141.42 74.64zm250.96 -188.05l1.08 -156.68c75.83,17.75 142.27,15.11 199.36,-7.93 87.87,-35.48 119.45,-83.79 94.76,-145 -11.56,-28.63 -32.97,-51.7 -64.29,-69.4 -31.05,-17.57 -85.6,-29.53 -163.4,-35.77 -77.7,-6.04 -132.2,-15.06 -162.95,-26.83 -31.03,-11.89 -58.28,-29.64 -81.8,-53.43 -23.8,-23.92 -42.71,-53.25 -56.72,-87.96 -26.27,-65.13 -24.13,-128.73 6.27,-190.73 30.34,-62.19 82.91,-108.27 157.64,-138.42 97.28,-39.28 176.23,-49.94 236.48,-31.82l6.68 147.14c-67.75,-16.44 -130.67,-12.92 -188.93,10.57 -34.52,13.93 -57.55,33.73 -69.22,59.66 -11.72,25.72 -11.57,53.25 0.14,82.29 19.49,48.24 93.21,76.63 221.1,85.47 67.57,4.67 118.45,13.77 152.72,26.86 34.24,13.1 64.13,32.29 89.49,57.84 25.65,25.68 45.98,57.4 61.25,95.28 27.47,68.05 23.26,134.99 -12.95,200.7 -35.93,65.82 -99.05,116.84 -189.46,153.36 -78.66,31.73 -157.69,39.91 -237.25,24.8zm1019.77 -1210.48l-26.84 146.45c-44.42,-24.15 -105.02,-25.12 -181.63,-2.99 -72.75,21.01 -123.47,68.68 -152.46,142.88 -28.99,74.22 -29.95,157.71 -3.06,250.78 26.88,93.08 69.8,160.82 128.67,203.04 58.87,42.21 124.24,52.82 196.17,32.04 82.31,-23.78 138.02,-71.79 167.53,-144.17l108.24 104.13c-43.72,85.73 -126.43,146.18 -248.54,181.45 -121.93,35.24 -228.2,22.56 -318.79,-38.02 -90.8,-60.5 -156.12,-160.07 -196.09,-298.47 -37.23,-128.83 -30.95,-247.33 18.94,-355.76 49.78,-108.17 133.19,-179.19 250.03,-212.94 100.18,-28.93 186.12,-31.73 257.83,-8.42zm899.09 688.78l-68.71 -402.84 -355.3 60.6 68.72 402.85 -158.87 27.1 -152.58 -894.51 158.89 -27.09 59.75 350.29 355.29 -60.6 -59.76 -350.29 157.64 -26.9 152.57 894.51 -157.64 26.88zm273 -961.74l160.72 -12.2 46.51 612.91c3.69,48.51 21.44,86.82 53.5,114.94 31.83,28.34 73.69,40.43 125.57,36.49 58.01,-4.41 102.01,-22.8 132.03,-54.99 29.98,-32.4 43.13,-74.33 39.2,-126.21l-46.29 -609.76 160.72 -12.19 47.24 622.4c7.06,93.01 -18.63,168.15 -77.04,225.62 -58.22,57.44 -139.55,90.12 -243.73,98.04 -105.04,7.96 -187.96,-11.62 -248.83,-58.76 -61.07,-47.12 -95.13,-118.58 -102.41,-214.54l-47.19 -621.75zm927.17 857.9l16.12 -907.27 161.15 2.86 -13.58 763.88 409.87 7.29 -2.55 143.38 -571.01 -10.14zm962.98 -715.18l-28.28 210.05 291.81 39.3 -18.29 135.83 -291.8 -39.28 -36.23 269.15 408.77 55.03 -19.14 142.13 -568.49 -76.52 121.06 -899.31 568.51 76.53 -19.14 142.12 -408.78 -55.03zm1704.68 292.03l-100.74 105.63c-13.65,-21.32 -37.06,-45.48 -70.69,-72.37 -33.37,-27.04 -63.78,-44.41 -91.01,-52.28 -85.56,-24.71 -161.62,-15.21 -227.72,28.43 -66.37,43.79 -113.59,114.27 -141.78,211.8 -26.76,92.66 -23.97,173.6 8.58,243.12 32.53,69.5 90.8,116.28 174.31,140.42 55.07,15.91 104.73,13.95 149.25,-5.98l49.6 -171.73 -120.69 -34.87 38.04 -131.66 275.55 79.6 -112.85 390.56c-45.73,19.59 -99.83,29.28 -162.82,29.37 -63,0.06 -123.37,-8.12 -180.88,-24.75 -124.97,-36.1 -212.33,-105.59 -261.82,-208.62 -49.5,-103.03 -54.85,-221.71 -15.97,-356.24 38.8,-134.3 110.21,-232.12 214.19,-293.24 104.09,-60.84 223.34,-71.97 358.26,-32.99 95.53,27.58 168.59,79.53 219.19,155.8zm417.52 1049.5l-91.75 -436.72c-22.73,-9.22 -53.97,-22.86 -93.92,-40.99l-136.38 353.41 -156.29 -60.31 327.01 -847.34c8.48,3.27 41.58,14.45 99.36,33.35 57.97,18.98 104.08,35.19 138.81,48.6 215.3,83.08 290.63,208.05 226.27,374.8 -19.34,50.12 -51.8,90.2 -97.6,120.14 -45.5,29.82 -94.26,44.55 -145.81,44.15l103.15 477.62 -172.85 -66.71zm-45.61 -840.61l-90.94 235.62c26.93,13.1 47.59,22.43 62.19,28.06 62.94,24.3 112.15,33.1 148.2,26.59 35.88,-6.57 63.8,-35.44 83.6,-86.77 16.14,-41.82 11.82,-77.04 -12.96,-105.64 -24.77,-28.62 -70.71,-55.87 -137.8,-81.76 -16.18,-6.24 -33.63,-11.61 -52.29,-16.1zm754.03 1200.06l25.87 -193.99 -277.28 -144.36 -141.46 133.83 -158.71 -82.65 746.82 -648.51 63.04 32.82 -100.7 984.9 -157.58 -82.04zm98.42 -672.73l-252.1 246.48 194.56 101.28 57.54 -347.76zm667.26 60.97l131.54 93.16 -355.33 501.58c-28.12,39.7 -38.9,80.53 -32.17,122.62 6.44,42.15 30.94,78.17 73.41,108.25 47.46,33.62 93.07,47.53 136.72,41.91 43.77,-5.79 80.67,-29.7 110.74,-72.16l353.48 -498.98 131.53 93.18 -360.82 509.33c-53.94,76.11 -121.67,117.56 -203.31,124.52 -81.49,7.08 -164.94,-19.65 -250.22,-80.05 -85.95,-60.88 -137.29,-128.89 -154.07,-204.03 -16.94,-75.24 2.43,-151.97 58.06,-230.52l360.44 -508.81zm385.25 1422.56l-210.25 -181.43 592.97 -687.14c96.45,75.69 163.41,129.57 200.55,161.62 71.42,61.64 114.19,125.08 127.99,190.35 13.8,65.26 -3.76,126.4 -52.69,183.08 -46.97,54.45 -112.99,72.65 -197.97,54.6 59.6,103.15 49.28,201.24 -30.88,294.12 -53.9,62.44 -120.27,91.79 -199.15,87.67 -78.89,-4.09 -155.79,-38.32 -230.57,-102.87zm420.45 -665.58l-142.2 164.78c17.8,17.58 36.94,35.21 57.6,53.06 79.58,68.66 145.29,73.14 196.84,13.39 45.74,-52.99 32.36,-110.64 -40.02,-173.09 -19.23,-16.59 -43.29,-35.96 -72.22,-58.14zm-224.71 260.37l-195.67 226.75c22.72,23.52 41.77,41.91 57.14,55.18 54.29,46.85 101.87,71.69 142.25,74.43 40.39,2.72 79.12,-17.23 116.02,-59.95 33.72,-39.1 46.94,-77.41 39.39,-114.96 -7.4,-37.4 -39.55,-80.77 -96.38,-129.82 -12.01,-10.37 -32.76,-27.42 -62.75,-51.63zm824.24 94.85l110.79 117.06 -446.44 422.51c-35.33,33.45 -53.88,71.39 -55.49,113.99 -1.93,42.59 15.07,82.7 50.85,120.49 39.97,42.25 81.99,64.81 125.9,67.82 44.05,2.85 84.9,-13.38 122.7,-49.14l444.12 -420.35 110.8 117.08 -453.34 429.05c-67.76,64.11 -142.27,91.53 -223.71,82.41 -81.3,-8.96 -157.95,-51.47 -229.77,-127.36 -72.4,-76.51 -109.49,-153.22 -111.26,-230.19 -1.92,-77.1 32.07,-148.59 101.96,-214.75l452.89 -428.62zm280.49 1732.77l180.86 -701.24 -442.5 346.8 -95.52 -121.88 714.22 -559.71 47.76 60.94 -166.94 675.8 431.52 -338.18 95.52 121.86 -724.2 567.56 -40.72 -51.95zm255.73 373.92l-99.14 -175.27 789.44 -446.53c67.08,109.57 108.88,178.74 125.14,207.47 65.07,115.07 82.93,225.24 53.67,330.76 -29.26,105.48 -99.7,189.79 -211.07,252.79 -284.09,160.69 -503.39,104.19 -658.04,-169.22zm646.86 -412.07l-538.51 304.62c10.59,23.9 23.23,48.82 38.13,75.14 39.99,70.71 96.93,111.64 170.89,122.54 73.96,10.89 157.12,-9.66 249.53,-61.93 168.83,-95.49 208.79,-221.61 120.07,-378.46 -8.55,-15.11 -21.9,-35.74 -40.11,-61.91zm423.65 776.41l-193.15 87.25 121.22 268.32 -124.91 56.43 -121.21 -268.33 -247.5 111.83 169.81 375.86 -130.7 59.05 -236.17 -522.75 826.94 -373.59 236.17 522.77 -130.69 59.03 -169.81 -375.87zm-287.23 1393.58l411.91 -595.63 -535.05 172.63 -47.54 -147.35 863.57 -278.62 23.77 73.69 -390.05 576.56 521.76 -168.33 47.53 147.34 -875.64 282.52 -20.26 -62.81zm-13557.57 8088.74l95.46 -170.86 -204.68 -236.29 -180.79 72.36 -117.16 -135.25 933.12 -328.09 46.54 53.73 -456.16 878.68 -116.33 -134.28zm339.14 -589.29l-325.12 136.38 143.61 165.8 181.51 -302.18zm462.31 1369.44l-112.98 -107.72 268.73 -418.87 -477.73 237.15 -41.34 -39.4 214.12 -488.5 -407.43 286.65 -112.98 -107.71 758.4 -530.66 61.55 58.68 -280.19 578.04 560.37 -310.95 61.51 58.69 -492.03 784.6zm422.32 -113.99l-206.62 262.93 -126.74 -99.58 560.41 -713.13c87.23,62.9 138.07,99.89 152.36,111.13 112.93,88.73 181.83,170.85 206.69,246.36 25.06,75.62 8.82,150.02 -48.83,223.36 -128.46,163.49 -289.39,169.38 -482.46,17.65 -14.31,-11.25 -32.52,-27.44 -54.81,-48.72zm267.4 -340.28l-178.79 227.53c19.61,19.18 35.67,33.68 47.99,43.37 57.86,45.46 107.69,69.02 149.63,70.75 41.64,1.8 79.64,-19.18 113.62,-62.42 58.02,-73.84 27.33,-157.68 -91.9,-251.37 -13.33,-10.48 -26.94,-19.82 -40.55,-27.86zm485.25 185.65l135.68 87 -331.72 517.47c-26.28,40.95 -35.16,82.24 -26.48,123.98 8.38,41.81 34.52,76.66 78.33,104.73 48.98,31.39 95.18,43.18 138.52,35.54 43.46,-7.82 79.21,-33.4 107.27,-77.2l330.04 -514.79 135.68 86.98 -336.88 525.48c-50.32,78.51 -116.08,123.07 -197.3,133.79 -81.1,10.85 -165.69,-11.98 -253.66,-68.38 -88.69,-56.85 -143.12,-122.41 -163.34,-196.68 -20.41,-74.39 -4.6,-151.94 47.33,-232.98l336.53 -524.94zm230.84 1146.19l119.14 -101.75c36.23,68.93 81.74,117.43 136.52,145.48 84.34,43.2 141.55,35.43 171.63,-23.31 14.07,-27.48 17.5,-58.75 10.38,-94.01 -7.06,-34.97 -33.71,-84.07 -79.94,-146.92 -46.31,-62.71 -75.18,-109.8 -86.42,-140.75 -11.33,-31.25 -15.77,-63.45 -13.17,-96.81 2.52,-33.66 12.3,-67.14 29.37,-100.48 32.01,-62.5 81.49,-102.5 148.26,-120.12 66.86,-17.78 136.11,-8.23 207.83,28.52 93.38,47.82 153.12,100.51 178.88,157.9l-106.85 101.41c-31.92,-61.99 -75.76,-107.25 -131.68,-135.87 -33.13,-16.99 -63.18,-21.43 -90.41,-13.29 -27.12,7.98 -47.83,26.12 -62.1,53.99 -23.72,46.3 3.08,120.64 80.15,223.1 40.72,54.1 67.14,98.54 79.69,133 12.52,34.47 17.57,69.6 14.86,105.53 -2.62,36.2 -13.28,72.32 -31.89,108.67 -33.46,65.32 -86.82,105.95 -160.2,121.6 -73.29,15.94 -153.17,1.65 -239.96,-42.8 -75.49,-38.66 -133.43,-93.04 -174.09,-163.09zm1033.4 214.52l53.53 -135.78 304.6 120.12 -53.53 135.74 -304.6 -120.08zm423.65 155.64l46.77 -138.26 310.14 104.97 -46.77 138.24 -310.14 -104.95zm415.16 136.46l32.82 -142.2 319.04 73.63 -32.81 142.21 -319.05 -73.64zm790.75 476.94l5.95 -46.79 339.11 -383.34c67.77,-76.89 105.28,-143.75 112.57,-201.27 8.64,-67.97 -27.96,-107.17 -110,-117.6 -62.74,-7.97 -117.31,18.79 -164.14,80.22l-96.21 -98.58c26.89,-40.51 65.04,-72.12 114.38,-94.85 49.37,-22.72 101.98,-30.55 157.36,-23.5 92.34,11.73 162.05,41.91 208.76,90.48 46.93,48.61 65.52,110.26 56.06,184.75 -8.69,68.4 -53.09,149.32 -133.22,242.98l-220.75 257.24 338.68 43.03 -18.09 142.27 -590.46 -75.04zm700.63 -383.6c3.13,-123.91 36.01,-227.81 98.66,-311.72 62.64,-84.1 144.48,-124.76 245.77,-122.21 210.82,5.33 312.43,162.15 304.65,470.23 -3.65,144.21 -35.12,258.49 -94.16,342.93 -59.25,84.62 -140.07,125.52 -242.83,122.92 -110.79,-2.79 -191.42,-44.62 -242.27,-125.24 -50.87,-80.65 -74.12,-206.26 -69.82,-376.91zm167.17 15.42c-3.05,120.96 6.56,210.08 28.59,267.55 22.03,57.49 60.21,87.01 114.57,88.37 58.98,1.5 101.49,-23.03 127.54,-73.78 26.03,-50.75 40.62,-142.03 43.93,-273.53 3.11,-122.43 -6.6,-207.31 -29.1,-254.42 -22.51,-47.33 -60.82,-71.58 -114.75,-72.94 -108.46,-2.74 -165.33,103.51 -170.78,318.75zm613.6 484.35l-1.19 -47.16 277.3 -430.19c55.37,-86.24 82.34,-158 80.88,-215.94 -1.75,-68.51 -43.84,-101.73 -126.53,-99.64 -63.2,1.6 -113.11,36.29 -150.12,104.09l-110 -82.9c20.45,-44.11 53.37,-81.12 98.75,-111.06 45.37,-29.91 96.18,-45.59 152,-47 93.04,-2.36 166.51,16.96 220.01,57.92 53.74,40.96 81.44,99.08 83.34,174.13 1.75,68.93 -29.92,155.65 -94.97,260.33l-179.36 287.64 341.29 -8.64 3.62 143.37 -595.02 15.05zm743.16 -30.07l-5.94 -46.81 232.45 -455.96c46.36,-91.4 65.97,-165.54 58.66,-223.02 -8.64,-67.98 -53.87,-96.78 -135.91,-86.36 -62.75,7.98 -108.89,47.53 -138.86,118.71l-117.81 -71.37c15.9,-45.96 44.92,-86.1 87.02,-120.45 42.12,-34.35 91.11,-55.08 146.49,-62.11 92.31,-11.73 167.38,0.05 224.73,35.4 57.6,35.34 91.03,90.37 100.5,164.85 8.68,68.4 -14.06,157.86 -68.21,268.56l-149.41 304.29 338.68 -43.02 18.08 142.25 -590.47 75.04zm1016.52 -458.77l-32.82 -142.22 319.04 -73.63 32.82 142.21 -319.04 73.64zm437.83 -108.94l-39.9 -140.4 314.99 -89.45 39.86 140.4 -314.95 89.45zm431.31 -132.53l-46.77 -138.26 310.15 -104.94 46.76 138.25 -310.14 104.95zm1157.67 -160.38l-247.2 126.58 -413.75 -807.81c106.39,-60.92 181.5,-102.7 225.17,-125.07 83.96,-42.99 158.82,-58.77 224.5,-47.01 65.67,11.75 115.71,50.99 149.84,117.64 32.78,64.01 24.84,132.01 -23.85,203.99 117.99,-16.46 204.99,30 260.93,139.19 37.59,73.42 39.82,145.94 6.36,217.51 -33.45,71.56 -94.1,129.95 -182,174.98zm-458.67 -639.89l99.21 193.74c22.99,-9.87 46.52,-20.99 70.81,-33.41 93.58,-47.93 122.42,-107.15 86.45,-177.37 -31.91,-62.3 -90.36,-71.58 -175.47,-27.99 -22.59,11.57 -49.59,26.57 -81,45.03zm156.77 306.14l136.55 266.58c30.34,-12.22 54.52,-22.97 72.62,-32.21 63.81,-32.69 104.72,-67.43 122.44,-103.83 17.71,-36.4 13.79,-79.78 -11.95,-130.04 -23.52,-45.94 -54.05,-72.6 -91.68,-79.71 -37.43,-7.21 -89.73,6.26 -156.55,40.48 -14.12,7.24 -37.73,20.04 -71.43,38.73zm1161.7 -156.3l-406.49 -184.14c-20.87,12.89 -50.34,30.02 -88.58,51.52l204.46 318.93 -141.04 90.4 -490.16 -764.62c7.65,-4.91 36.24,-24.99 85.63,-60.43 49.55,-35.54 89.91,-63.16 121.24,-83.25 194.28,-124.54 339.6,-111.43 436.06,39.03 29,45.24 42.14,95.1 39.22,149.74 -2.85,54.33 -19.79,102.37 -50.58,143.71l446.23 199.11 -155.99 100zm-704.99 -460.09l136.29 212.61c26.49,-13.95 46.23,-25.1 59.39,-33.55 56.8,-36.42 92.99,-70.91 109.07,-103.84 15.91,-32.81 9.1,-72.42 -20.59,-118.71 -24.18,-37.75 -55.14,-55.08 -92.87,-52 -37.72,3.08 -86.86,24.02 -147.4,62.84 -14.61,9.35 -29.23,20.24 -43.89,32.65zm1356.75 6.42l-160.94 -111.35 -254.79 181.18 54.78 186.85 -145.85 103.71 -237.43 -960.18 57.93 -41.19 831.08 538.01 -144.78 102.97zm-554.19 -393.88l104.7 336.65 178.75 -127.11 -283.45 -209.54zm165.65 -470.87l121.81 -105.52 402.45 464.6c31.86,36.77 68.96,56.98 111.44,60.46 42.45,3.8 83.28,-11.43 122.62,-45.49 43.95,-38.09 68.33,-79.07 73.28,-122.81 4.79,-43.89 -9.63,-85.41 -43.69,-124.73l-400.37 -462.2 121.81 -105.54 408.7 471.8c61.07,70.49 85.18,146.15 72.49,227.1 -12.55,80.85 -58.39,155.53 -137.38,223.95 -79.6,68.96 -157.89,102.64 -234.86,101 -77.12,-1.47 -147.03,-38.56 -210.04,-111.3l-408.26 -471.32zm782.25 -542.89l153.41 146.25 203.17 -213.09 99.2 94.57 -203.18 213.09 196.59 187.41 284.6 -298.52 103.79 98.97 -395.82 415.16 -656.76 -626.13 395.83 -415.19 103.79 98.95 -284.62 298.53zm1242.15 -295.04l-444.41 -40.41c-15.49,19.04 -37.71,44.9 -66.74,77.75l297.85 234.09 -103.5 131.71 -714.13 -561.2c5.62,-7.13 26.01,-35.51 61.03,-85.2 35.14,-49.86 64.17,-89.2 87.17,-118.45 142.58,-181.45 284.15,-216.81 424.7,-106.36 42.23,33.19 71.03,75.97 86.22,128.53 15.15,52.27 14.93,103.2 -0.57,152.37l486.86 41.49 -114.48 145.68zm-817 -202.99l198.57 156.05c20.45,-21.89 35.41,-38.89 45.08,-51.21 41.69,-53.06 64.53,-97.52 68.9,-133.89 4.24,-36.21 -15.2,-71.39 -58.43,-105.37 -35.25,-27.7 -70.19,-33.91 -104.82,-18.61 -34.61,15.29 -74.14,51.23 -118.57,107.76 -10.72,13.64 -20.97,28.72 -30.73,45.27zm411.26 -560.32l178.45 114.39 158.91 -247.87 115.37 73.97 -158.9 247.87 228.64 146.59 222.6 -347.24 120.73 77.39 -309.6 482.92 -763.9 -489.72 309.59 -482.92 120.72 77.39 -222.61 347.23zm937.29 -69.37l-786.64 -452.31 80.34 -139.72 786.64 452.32 -80.34 139.71z"/>
 </g>
 <g id="Ring">
  <metadata id="CorelCorpID_1Corel-Layer"/>
  <path class="fil0" d="M10000 500c5246.71,0 9500,4253.29 9500,9500 0,5246.71 -4253.29,9500 -9500,9500 -5246.71,0 -9500,-4253.29 -9500,-9500 0,-5246.71 4253.29,-9500 9500,-9500zm-2447.48 534.49c0,140.91 262.21,33.14 280.28,20.89 29.84,-20.23 38.95,-58.12 30.14,-88.32 -28.32,-97.08 -149.87,-42.17 -218.56,-24.78 -50.62,12.82 -91.86,29.66 -91.86,92.21zm1824.11 -301.22c0,106.94 116.23,83.68 217.55,83.68 114.02,0 136.4,-131.68 43.53,-161.06l-210.12 11.2c-19.36,8.83 -50.96,37.62 -50.96,66.18zm-3547.81 17587.96c0,59.52 14.74,62.05 92.04,100.41 37.56,18.64 82.87,50.2 125.52,50.2 44.94,0 75.31,-34.1 75.31,-83.67 0,-82.12 -207.9,-142.25 -209.19,-142.25 -49.58,0 -83.68,30.36 -83.68,75.31zm9254.41 -619.18c0,53.31 30.36,83.67 83.67,83.67 17.95,0 200.82,-79.6 200.82,-167.35 0,-44.93 -34.1,-75.29 -83.67,-75.29 -17.31,0 -200.82,89.66 -200.82,158.97zm-9254.41 -16048.38c0,161.42 116.85,91.66 206.42,47.44 51.38,-25.37 86.45,-33.89 86.45,-97.64 0,-44.94 -34.09,-75.31 -83.68,-75.31 -16.79,0 -209.19,77.23 -209.19,125.51zm12860.78 5313.2l66.76 200.99c40.38,58.28 142.42,37.31 142.42,-50.38 0,-36.02 -26.54,-101.99 -38.52,-137.19 -52.44,-154.21 -170.66,-76.59 -170.66,-13.42zm-158.98 6484.62c0,98.67 117.88,143.43 168.44,1.08 18,-50.68 110.37,-210.27 -42.93,-210.27 -53.12,0 -68.45,46.82 -82.56,84.8 -9.19,24.73 -42.95,104.65 -42.95,124.39zm-4652.31 -11848.02c0,63.75 35.07,72.27 86.45,97.64 41.03,20.26 87.97,52.97 131.11,52.97 79.15,0 75.31,-71.15 75.31,-100.41 0,-45.57 -182.97,-125.51 -217.56,-125.51 -41.36,0 -75.31,33.95 -75.31,75.31zm-12484.23 11940.05c42.52,0 75.3,-34.43 75.3,-92.03 0,-0.09 -43.45,-209.19 -125.51,-209.19 -145.84,0 -64.71,168.78 -28.38,245.95 9.4,19.96 12.3,28.37 28.31,38.62 5.72,3.66 41.18,16.65 50.28,16.65zm17136.54 -7011.75c0,25 44.07,225.93 125.51,225.93 145.84,0 64.71,-168.78 28.38,-245.95 -9.4,-19.96 -12.3,-28.37 -28.31,-38.62 -60.25,-38.59 -125.58,1.96 -125.58,58.64zm-4652.31 11856.4c0,53.3 30.37,83.67 83.68,83.67 30,0 91.92,-37.68 117.15,-50.2 96.82,-48.05 92.04,-47.01 92.04,-117.15 0,-32.9 -33.84,-58.57 -83.68,-58.57 -1.29,0 -209.19,60.13 -209.19,142.25zm-11262.59 -14115.55c0,47.01 36.68,83.67 83.68,83.67 60.28,0 175.72,-161.3 175.72,-200.82 0,-79.14 -71.17,-75.29 -100.41,-75.29 -34.37,0 -158.99,161.74 -158.99,192.44zm2016.56 13345.75c0,58.67 35.67,74.32 80.3,103.79 64.85,42.81 75.77,63.56 145.63,63.56 25.93,0 58.56,-38.08 58.56,-83.67 0,-66.62 -175.36,-158.97 -209.18,-158.97 -41.36,0 -75.31,33.94 -75.31,75.29zm4468.22 -16926.93c-74.48,17.93 -151.18,-25.75 -177.94,65.55 -9.94,33.9 2.61,61.85 28.88,83.5 35.53,29.27 59.91,18 101.2,12.38 83.19,-11.32 153.64,7.42 175.58,-67.99 10.45,-35.96 -2.58,-96.98 -69.45,-102.47 -38.78,-3.18 -47.78,6.5 -58.27,9.03zm8024.38 3464.03c0,45.35 33.67,71.32 72.68,119.79 24.22,30.1 55.26,81.03 103.04,81.03 59.87,0 137.55,-53.42 18.89,-186.24 -79.07,-88.5 -55.81,-89.87 -136.04,-89.87 -30.44,0 -58.57,40.79 -58.57,75.29zm-12492.6 -1782.21c0,53.3 30.36,83.66 83.67,83.66 33.46,0 91.94,-47.42 118.82,-65.26 38.14,-25.33 82,-40.99 82,-102.08 0,-44.94 -34.09,-75.3 -83.67,-75.3 -36.62,0 -88.19,42.15 -115.48,60.22 -33.95,22.5 -85.34,47.21 -85.34,98.76zm13513.43 11914.96c0,34.63 1.42,92.04 75.31,92.04 63.82,0 70.38,-46.26 95.57,-88.51 140.54,-235.66 -46.01,-225.35 -86.96,-179.02 -16.79,18.98 -83.92,145.21 -83.92,175.49zm-16718.16 -552.24c0,28.83 39.68,113.01 52.89,139.56 15.76,31.66 37.16,94.72 97.72,94.72 42.52,0 75.31,-34.44 75.31,-92.04l-78.39 -181c-30.37,-42.26 -92.87,-42.12 -124.17,-4.83 -4.13,4.93 -23.36,40.24 -23.36,43.59zm15396.11 2459.96c0,64.12 53.02,75.31 100.4,75.31 29.21,0 52.61,-38.55 69.01,-56.51 31.73,-34.72 103.7,-93.85 93.59,-148.09 -10.05,-54.01 -43.02,-63.15 -87.29,-63.15 -51.5,0 -76.9,50.18 -102.88,81.2 -26.2,31.29 -72.83,58.69 -72.83,111.24zm-1740.43 -13906.36c0,61.18 36.85,72.09 82,102.08 38.82,25.78 81.57,65.26 127.18,65.26 44.95,0 75.31,-34.08 75.31,-83.66 0,-49.9 -46.64,-73.21 -80.3,-95.42 -40.27,-26.58 -80.16,-63.56 -128.89,-63.56 -41.35,0 -75.3,33.95 -75.3,75.3zm-8836.03 -828.35c0,170.31 150.59,72.9 209.23,50.24 157.26,-60.79 73.76,-149.99 45.8,-163.66 -52.49,-25.66 -255.03,61.42 -255.03,113.42zm12919.34 7748.06c0,146.64 -12,251.02 100.41,251.02 96.53,0 62.58,-136.2 58.68,-217.65 -6.92,-144.7 -159.09,-89.22 -159.09,-33.37zm-17839.4 -2451.59c64.97,0 75.98,-22.05 99.29,-84.8 19.51,-52.51 42.95,-94.48 42.95,-141.13 0,-47.8 -46.76,-78.49 -89.15,-72.23 -49.66,7.32 -64.7,46.82 -79.29,87.89 -8.98,25.29 -106.91,210.27 26.2,210.27zm1748.8 9513.55c29.24,0 100.4,3.85 100.4,-75.31 0,-52.55 -46.63,-79.95 -72.83,-111.24 -42.68,-50.96 -47.92,-81.2 -119.62,-81.2 -46.4,0 -108.7,51.99 -40.9,141.3 19.42,25.6 104.49,126.45 132.95,126.45zm13747.72 -12467.19c0,52.55 46.63,79.95 72.83,111.24 42.68,50.96 47.92,81.2 119.62,81.2 46.4,0 108.7,-51.99 40.9,-141.3 -19.42,-25.6 -104.49,-126.45 -132.95,-126.45 -29.24,0 -100.4,-3.85 -100.4,75.31zm-15856.33 8626.62c0,31.3 25.33,109.63 34.37,141.36 22.81,80.14 31.79,92.92 107.89,92.92 20.97,0 58.57,-26.05 58.57,-83.66 0,-34.71 -23.62,-97.95 -31.61,-127.38 -23.9,-88.19 -32.17,-90.18 -110.64,-90.18 -24.45,0 -58.58,41.71 -58.58,66.94zm6217.02 -11195.38c38.11,0 102.25,-25.5 139.36,-36.35 170.15,-49.73 80.34,-171.14 12.77,-167.93 -34.21,1.62 -99.69,27.21 -128.89,35.07 -47.82,12.88 -83.22,22.73 -94.2,73.69 -9.75,45.17 20.78,95.52 70.96,95.52zm10484.42 13856.17c0,82.09 101.62,123.4 155.85,38.7l87.65 -139.06c26.48,-86.13 -91,-161.72 -157.37,-47.79 -16.96,29.12 -86.13,122.39 -86.13,148.15zm-15337.54 -10182.94c0,-82.09 -101.62,-123.4 -155.85,-38.7l-87.65 139.06c-26.48,86.13 91,161.72 157.37,47.79 16.96,-29.12 86.13,-122.39 86.13,-148.15zm652.66 -912.03c71.7,0 76.94,-30.24 119.62,-81.2 26.2,-31.29 72.83,-58.69 72.83,-111.24 0,-64.12 -53.02,-75.31 -100.4,-75.31 -29.21,0 -52.61,38.55 -69.01,56.51 -41.04,44.93 -105.62,94.69 -93.99,147.71 8.09,36.86 29.84,63.53 70.95,63.53zm-2125.33 7990.72c0,31.97 30.61,177.37 48.77,202.24 39.6,54.24 143.68,36.02 143.68,-43.26 0,-41.55 -17.17,-101.07 -26.59,-140.76 -37.04,-156.14 -165.86,-89.22 -165.86,-18.22zm1757.16 3731.79c0,40.21 42.78,86.33 64.79,110.93 74.06,82.8 47.03,89.88 136.04,89.88 37.45,0 58.57,-44.5 58.57,-92.03 0,-20.35 -57.49,-84.18 -72.68,-103.05 -24.22,-30.1 -55.26,-81.03 -103.04,-81.03 -40.49,0 -83.68,37.42 -83.68,75.3zm5388.65 -14801.65c0,129.47 155.44,69.87 210.01,59.4 24.95,-4.78 46.18,-7.33 64.85,-18.84 43.47,-26.8 90.98,-177.07 -117.98,-134.71 -32.44,6.58 -75.25,11.68 -103.45,22.06 -26.81,9.87 -53.43,43.87 -53.43,72.09zm10827.47 6476.24c0,60.46 40.46,199.82 56.63,219.52 42,51.15 144.2,22.02 144.2,-43.8 0,-31.3 -25.33,-109.63 -34.37,-141.36 -16.24,-57.09 -24.08,-92.92 -91.15,-92.92 -32.67,0 -75.31,31.92 -75.31,58.56zm-686.13 -1706.92c0,68.79 79.87,225.92 125.51,225.92 173.84,0 75.78,-160.83 19.82,-254.1 -39.66,-66.12 -145.33,-45.35 -145.33,28.18zm-13128.53 -3564.45c0,52.91 39.89,83.68 75.31,83.68 16.37,0 217.55,-88.37 217.55,-158.97 0,-41.99 -30.96,-83.68 -83.67,-83.68 -21.68,0 -209.19,84.36 -209.19,158.97zm13931.81 10023.97c0,72.62 128.37,131.4 163.88,-11.83 10.41,-41.99 28.57,-106.28 28.57,-147.15 0,-77.32 -129.96,-131.18 -164.26,11.45 -10.06,41.85 -28.19,105.23 -28.19,147.53zm-1824.11 3698.33c0,79.14 71.17,75.29 100.41,75.29 32.59,0 70.59,-63.14 90.18,-85.53 18.11,-20.69 68.81,-76.28 68.81,-106.91 0,-47.01 -36.68,-83.67 -83.68,-83.67 -47.78,0 -78.81,50.93 -103.04,81.03 -23.59,29.31 -72.68,76.62 -72.68,119.79zm786.55 -10559.47c0,41.71 65.33,139.78 88.93,178.82 48.84,80.79 153.72,33.46 153.72,-28.21 0,-22.35 -77.3,-217.55 -150.62,-217.55 -69.41,0 -92.03,47.23 -92.03,66.94zm-3221.47 -3246.49c0,59.81 46.95,77.81 84.13,99.94 13.68,8.14 110.25,67.4 116.68,67.4 77.85,0 161.58,-89.91 5.71,-181.42 -42.28,-24.83 -80.2,-61.23 -131.21,-61.23 -41.75,0 -75.31,40.91 -75.31,75.31zm-13982.02 6902.97c0,55.13 141.74,116.05 160.72,-31.74 11.24,-87.54 50.94,-219.27 -68.67,-219.27 -54.71,0 -70.09,37.16 -78.11,89.24 -6.89,44.73 -13.94,105.44 -13.94,161.77zm17278.79 5840.34c84.14,0 84.84,-53.61 140.71,-143.78 70.64,-114.03 -28.29,-147.99 -55.91,-146.7 -54.54,2.56 -70.23,44.05 -92.7,81.76 -12.34,20.69 -57.35,91.71 -62.89,113.36 -11.18,43.71 21.15,95.36 70.79,95.36zm1129.6 -3539.35c0,60.53 138.84,126.69 161.79,-22.3 17.96,-116.66 43.06,-220.34 -69.74,-220.34 -55.31,0 -70.21,37.07 -77.04,90.31 -6.11,47.56 -15.01,95.4 -15.01,152.33zm-167.34 -3388.73c0,41.55 17.17,101.07 26.59,140.76 36.67,154.58 165.86,92.95 165.86,18.22 0,-31.97 -30.61,-177.37 -48.77,-202.24 -39.6,-54.24 -143.68,-36.02 -143.68,43.26zm-7262.94 11237.21c0,98.23 39.68,108.68 152.7,85.78 32.44,-6.58 75.25,-11.68 103.45,-22.06 85.49,-31.48 56.43,-155.75 -21.87,-155.75 -43.11,0 -94.9,16.62 -134.71,24.26 -24.95,4.78 -46.18,7.33 -64.85,18.84 -13.4,8.26 -34.72,29.84 -34.72,48.93zm-11019.94 -9697.63c0,52.89 72.9,98.16 128.14,53.06 45.29,-36.96 39.21,-169.87 39.21,-237.15 0,-56.29 -148.36,-107.52 -158.82,25.26 -4.62,58.61 -8.53,96.96 -8.53,158.83zm3229.84 -6442.78c0,17.99 49.84,122.98 140.62,48.58 48.07,-39.4 143.87,-103.09 143.87,-157.36 0,-47.16 -43.92,-75.31 -100.41,-75.31 -4.46,0 -184.08,104.66 -184.08,184.09zm6869.67 16291.02c0,23.18 25.15,61.43 47.08,70.12 31.62,12.51 202.01,-8.19 223.52,-17.08 51.25,-21.21 67.59,-110.44 -2.58,-145.45 -31.59,-15.76 -206.57,8.71 -220.79,14.14 -25.48,9.73 -47.23,50.72 -47.23,78.27zm-9137.25 -5078.92c0,19.64 76.53,217.56 133.87,217.56 105.74,0 113.39,-68.06 72.69,-147.98 -48.33,-94.95 -52.02,-144.88 -131.25,-144.88 -41.36,0 -75.31,33.95 -75.31,75.3zm2627.38 -11504.95c0,34.97 40.32,75.29 75.3,75.29 47.25,0 125.1,-67.51 172.54,-103.58 67.93,-51.65 38.47,-147.43 -47.03,-147.43 -27.64,0 -200.81,95.93 -200.81,175.72zm8325.6 16232.45c0,134.02 180.05,52.06 211.06,43.71 161.75,-43.55 89.13,-169.21 23.24,-169.21 -38.11,0 -102.25,25.5 -139.36,36.35 -52.09,15.22 -94.94,26.68 -94.94,89.15zm3589.65 -15747.16c0,77.32 176.63,192.45 184.08,192.45 48.01,0 92.04,-35.99 92.04,-83.67 0,-45.17 -140.31,-184.09 -192.45,-184.09 -42.57,0 -83.67,36.16 -83.67,75.31zm-351.44 -309.59c0,53.39 45.65,87.75 78.8,113.65 22.07,17.24 35.76,27.84 56.03,44.38 110.34,90.01 149.66,-32.83 149.66,-40.88 0,-79.43 -179.62,-184.09 -184.08,-184.09 -31.9,0 -51.46,-3.12 -73.28,18.76 -5.48,5.5 -27.13,43.19 -27.13,48.18zm3346.98 7915.42c0,35.3 -4.59,100.41 83.68,100.41 92.12,0 83.67,-151.3 83.67,-242.66 0,-52.89 -72.9,-98.16 -128.14,-53.06 -30.07,24.54 -27.73,37.85 -31.75,85.62 -3.2,37.95 -7.46,60.4 -7.46,109.69zm-2660.84 5781.76c0,36.65 26.84,63.89 51.35,74.94 86.92,39.21 216.4,-154.7 216.4,-166.97 0,-140.69 -121.93,-95.99 -152.94,-60.9 -14.92,16.87 -14.04,20.68 -29.12,37.83 -37.1,42.2 -85.69,66.13 -85.69,115.1zm-10258.5 1983.04c0,77.11 51.49,85.99 150.51,125.63 29.32,11.73 63.51,29.2 93.48,18.73 39.11,-13.68 126.03,-107.35 -34.76,-169.5 -24.03,-9.29 -111.85,-50.16 -133.93,-50.16 -34.39,0 -75.3,33.56 -75.3,75.3zm12584.64 -5932.37c0,53.3 30.37,83.66 83.68,83.66 55.52,0 67.77,-39.55 80.92,-86.41 7.68,-27.39 36.23,-119.3 36.23,-139.5 0,-74.66 -90.38,-106.6 -140.2,-56.54 -16.57,16.67 -60.63,164.25 -60.63,198.79zm-10584.82 6610.12c57.64,0 98.96,-100.86 37.21,-145.98 -20.2,-14.75 -37.54,-15.97 -62.79,-20.88 -36.24,-7.05 -100.66,-25.58 -133.4,-25.58 -83.73,0 -105.06,101.4 -52.21,144.23 18.49,14.99 175.58,48.21 211.19,48.21zm-4694.14 -15939.6c0,52.63 46.22,83.67 83.67,83.67 45.22,0 79.87,-55.09 112.32,-80.14 162.88,-125.76 35.99,-187.62 -3.54,-187.62 -48.63,0 -192.45,138.08 -192.45,184.09zm-2886.77 7354.8c0,119.66 -5.67,242.66 92.04,242.66 114.04,0 72.67,-172.67 66.76,-234.11 -10.31,-107.4 -158.8,-94.04 -158.8,-8.55zm12417.3 8216.64c44.7,0 242.65,-43.8 242.65,-125.51 0,-61.74 -36.09,-83.67 -92.04,-83.67 -18.46,0 -163.46,55.12 -177.56,65.1 -24.08,17.04 -43.71,43.92 -35.69,80.6 3.94,18.05 9.9,29.03 19.6,39.53 6.46,6.98 30.56,23.95 43.04,23.95zm-11237.49 -4258.93c0,22.35 77.3,217.55 150.62,217.55 28.73,0 44.9,1.3 64.91,-18.76 59.3,-59.46 -2.84,-129.46 -61.81,-227 -48.84,-80.79 -153.72,-33.46 -153.72,28.21zm0 -9137.03c0,44.02 41.98,83.2 82.55,81.3 54.54,-2.56 70.23,-44.05 92.7,-81.76 12.34,-20.69 57.35,-91.71 62.89,-113.36 11.28,-44.11 -13.9,-95.36 -87.52,-95.36 -61.23,0 -84.7,80.39 -123.98,143.78 -12.86,20.77 -26.64,34.29 -26.64,65.4zm12844.04 12525.76c0,41.99 30.96,83.68 83.67,83.68 21.68,0 209.19,-84.36 209.19,-158.97 0,-52.91 -39.89,-83.68 -75.31,-83.68 -33.44,0 -94.37,44.23 -122.87,61.21 -35.89,21.39 -94.68,46.29 -94.68,97.76zm2978.81 -13052.9c0,36.88 44.55,91.87 63.64,120.44 38.74,58 36.07,88.74 112.08,88.74 52.45,0 104.1,-55.93 40.28,-149.04 -70.02,-102.16 -66.99,-135.44 -140.7,-135.44 -41.35,0 -75.3,33.95 -75.3,75.3zm-16567.55 7973.99c0,48.02 22.74,99.16 38.52,145.56 52.44,154.21 170.66,76.59 170.66,13.42 0,-25.09 -32.59,-110.17 -40.7,-135.01 -58.47,-179.03 -168.48,-76.73 -168.48,-23.97zm18015.11 -4116.68c0,89.03 3.77,242.64 92.05,242.64 112.38,0 87.57,-98.86 70.89,-213.13 -23.59,-161.52 -162.94,-87.76 -162.94,-29.51zm-3296.77 8400.71c0,58.54 53.65,75.31 100.41,75.31 4.46,0 184.08,-104.66 184.08,-184.09 0,-17.99 -49.84,-122.98 -140.62,-48.58 -20.17,16.53 -33.98,28.24 -55.48,44.93 -30.01,23.3 -88.39,67.41 -88.39,112.43zm-15111.62 -6099.72c0,88.72 -0.55,251.01 92.05,251.01 119.61,0 79.91,-131.73 68.67,-219.27 -19.36,-150.76 -160.72,-84.32 -160.72,-31.74zm14751.82 6375.84c0,53.31 30.36,83.67 83.68,83.67 27.64,0 200.81,-95.93 200.81,-175.72 0,-34.97 -40.32,-75.29 -75.3,-75.29 -47.25,0 -125.1,67.51 -172.54,103.58 -21.4,16.27 -36.65,29.77 -36.65,63.76zm-11906.88 -686.12c0,54.65 89.68,114.99 127.31,148.82 98.59,88.66 148.81,-14.32 148.81,-40.04 0,-54.02 -44.05,-84.94 -75.31,-108.78 -21.55,-16.45 -83.22,-83.67 -108.77,-83.67 -48.01,0 -92.04,35.99 -92.04,83.67zm-2451.66 -9630.7c0,75.2 113.51,151.73 166.39,-9.32 9.37,-28.54 42.79,-115.94 42.79,-141.29 0,-63.17 -118.22,-140.79 -170.66,13.42 -11.98,35.2 -38.52,101.17 -38.52,137.19zm11915.25 -5873.81c0,55.58 35.53,79.95 80.34,95.38 57.93,19.96 102.52,46.87 153.94,46.87 63.14,0 142.82,-111.68 -15.65,-168.43 -46.46,-16.64 -144.35,-69.28 -191.51,-21.99 -5.49,5.5 -27.12,43.18 -27.12,48.17zm435.1 175.72c0,57.76 49.68,75.72 92,92.08 24.03,9.29 111.85,50.16 133.93,50.16 66.97,0 126.09,-115.04 13.36,-163.97 -41.51,-18.02 -142.87,-69.39 -182.05,-55.69 -28.67,10.04 -57.24,41.2 -57.24,77.42zm-9555.62 15630.01c0,79.43 179.62,184.09 184.08,184.09 31.9,0 51.46,3.12 73.28,-18.76 63.06,-63.25 -3.91,-124.52 -51.67,-161.83 -37.27,-29.11 -87.26,-78.8 -122.02,-78.8 -35.47,0 -83.67,41.01 -83.67,75.3zm-3246.58 -6744.66c5.89,50.95 25.62,84.34 83.68,84.34 97.47,0 75.31,-124.18 75.31,-217.55 0,-132.45 -158.99,-122.06 -158.99,-25.1l0 158.31zm6769.28 8585.46c0,-58.89 -38.21,-73.14 -88.37,-87.36 -36.85,-10.46 -225.07,-95.38 -218.76,44.53 2.42,53.74 40.76,71.83 89.4,84.83 38.08,10.19 88.51,31.47 129.57,36.19 42.52,4.9 88.16,-27.31 88.16,-78.19zm5162.7 -17780.4c0,58.89 38.21,73.14 88.37,87.36 36.85,10.46 225.07,95.38 218.76,-44.53 -2.42,-53.74 -40.76,-71.83 -89.4,-84.83 -38.08,-10.19 -88.51,-31.47 -129.57,-36.19 -42.52,-4.9 -88.16,27.31 -88.16,78.19zm-3204.72 18140.19c0,86.49 64.05,91.1 150.89,91.77 82.3,0.62 167.07,28.21 167.07,-75.03 0,-105.89 -149.39,-83.68 -242.66,-83.68 -58.34,0 -75.3,66.83 -75.3,66.94zm4074.94 -669.38c0,68.01 57.64,95.89 144.75,61.13 102.7,-40.99 156.48,-51.17 156.48,-128.07 0,-46.27 -37.72,-75.3 -83.67,-75.3 -12.34,0 -106.33,42.73 -125.56,50.16 -42.32,16.36 -92,34.32 -92,92.08zm-3146.16 -17855.7c0,115.28 130.91,92.04 242.66,92.04 58.34,0 75.3,-66.83 75.3,-66.94 0,-86.49 -64.05,-91.1 -150.89,-91.77 -67.08,-0.51 -167.07,-27.15 -167.07,66.67zm8384.19 12308.22c0,63.17 118.22,140.79 170.66,-13.42 15.78,-46.4 38.52,-97.54 38.52,-145.56 0,-57.33 -111.78,-148.64 -166.39,17.69 -9.37,28.54 -42.79,115.94 -42.79,141.29zm-16350.01 2326.09c0,4.39 96.66,200.82 175.73,200.82 59.99,0 108.5,-73.66 49.24,-149.66 -78.38,-100.54 -74.07,-134.84 -149.66,-134.84 -46.26,0 -75.31,37.73 -75.31,83.68zm15069.78 -10843.95c0,60 44.42,97.46 100,176.13 43.94,62.21 151.04,36.92 151.04,-50.62 0,-4.39 -96.66,-200.82 -175.73,-200.82 -41.36,0 -75.31,33.95 -75.31,75.31zm1782.27 5170.96c0,76.34 -26.12,242.65 83.68,242.65 51.47,0 69.64,-37.82 75.31,-86.58l0 -139.33c0,-133.19 -158.99,-108.64 -158.99,-16.74zm-15965.09 6718.9l0 33.47c0,33.07 143.1,175.71 175.72,175.71 49.93,0 92.03,-33.45 92.03,-83.68 0,-45.63 -47.46,-76.14 -73.37,-102.33 -53,-53.54 -38.52,-81.74 -127.44,-81.74 -47.46,0 -66.94,44.59 -66.94,58.57zm6007.83 2836.49c0,-88.14 -84.57,-88.03 -150.61,-92.04 -27.47,-1.67 -158.47,-37.97 -162.71,67.96 -3.28,81.93 61.57,86.7 145.72,91.27 34.01,1.85 75.76,16.27 114.21,5.05 26.44,-7.73 53.39,-46.16 53.39,-72.24zm-2560.44 -17939.37c0,61.74 36.09,83.67 92.04,83.67 18.46,0 163.46,-55.12 177.56,-65.1 24.08,-17.04 43.71,-43.92 35.69,-80.6 -25.12,-114.93 -162.09,-41.43 -214.33,-22.73 -42.05,15.05 -90.96,30.8 -90.96,84.76zm-2418.19 16040c0,58.63 42.19,77.81 78.88,105.2 40.73,30.42 77.97,70.52 130.3,70.52 69.22,0 107.15,-92.63 43.46,-143.87 -39.47,-31.76 -132.03,-107.14 -177.34,-107.14 -34.98,0 -75.3,40.32 -75.3,75.29zm-3606.38 -7496.44c5.72,47.58 23.96,83.07 75.31,83.07 108.04,0 83.68,-152.79 83.68,-242.65 0,-93.02 -158.99,-114.8 -158.99,16.74l0 142.84zm209.19 -1833.03c0,79.15 71.16,75.3 100.41,75.3 64.72,0 92.04,-204.58 92.04,-234.28 0,-72.62 -128.37,-131.4 -163.88,11.83 -10.41,41.99 -28.57,106.28 -28.57,147.15zm2367.99 -4451.38c0,140.02 119.97,97.97 152.93,60.88l62.54 -71.32c22.74,-22.34 52.28,-40.8 52.28,-81.59 0,-54.07 -69.95,-119.32 -144.58,-52.56 -24.63,22.03 -123.17,114.18 -123.17,144.59zm12233.21 -1004.07c0,59.22 30.01,66.42 84.88,107.57 30.69,23.02 77.3,68.14 124.31,68.14 34.98,0 75.3,-40.32 75.3,-75.29 0,-58.63 -42.19,-77.81 -78.88,-105.2 -40.73,-30.42 -77.97,-70.52 -130.3,-70.52 -41.36,0 -75.31,33.95 -75.31,75.3zm-10442.58 15303.7c0,66.1 27.34,79.84 86.34,114.48 42.28,24.83 80.2,61.23 131.21,61.23 41.75,0 75.31,-40.91 75.31,-75.31 0,-62.28 -45.87,-77.14 -84.13,-99.94 -85.45,-50.92 -115.13,-88.73 -175.3,-50.71 -11.67,7.38 -33.43,33.26 -33.43,50.25zm5288.23 1405.7c0,21.15 0.64,34.3 19.78,55.52 37.04,41.04 95.55,20.76 138.95,19.55 29.96,-0.85 159.23,10.7 159.23,-75.07 0,-106.94 -116.23,-83.68 -217.55,-83.68 -54.01,0 -100.41,31.32 -100.41,83.68zm5865.59 -2409.77c0,34.53 60.16,122.42 144.53,44.13 20.51,-19.03 29.81,-22.26 50.18,-41.87 26.7,-25.7 128.42,-103.12 57.47,-170.77 -71.92,-68.58 -141.92,32.94 -172.05,56.2 -34.71,26.83 -80.13,56.27 -80.13,112.31zm3020.64 -6702.17c0,101.25 -23.77,234.29 75.31,234.29 57.93,0 77.73,-34.34 83.68,-85.4l0 -157.25c0,-106.1 -158.99,-91.71 -158.99,8.36zm-18224.31 -2593.84c0,78.65 91.5,105.47 140.2,56.54 0.14,-0.16 148.72,-282.45 -23.05,-282.45 -55.52,0 -67.77,39.55 -80.92,86.41 -7.68,27.39 -36.23,119.3 -36.23,139.5zm-117.13 987.33c110.52,0 102.49,-260.7 102.47,-260.76 -21.48,-59.89 -112.24,-87.65 -150.58,-4.89 -8.23,17.77 -40.77,177.09 -29.22,208.52 10.28,28 43.73,57.13 77.33,57.13zm577.35 -2292.63c0,48.77 97.26,163.09 172.99,-2.72 11.35,-24.87 16.66,-42.34 27.76,-64.27 18.37,-36.33 45.52,-86.31 5.37,-130.78 -30.44,-33.73 -89.81,-40.13 -127.54,16.97 -13.39,20.26 -78.58,160.1 -78.58,180.8zm903.68 8844.19c0,-36.88 -44.55,-91.87 -63.64,-120.44 -38.74,-58 -36.07,-88.74 -112.08,-88.74 -56.97,0 -77.13,55.69 -69.09,94.62 5.98,29 48.18,83.17 65.74,109.55 25.23,37.87 37.24,78.62 90.61,83.6 41,3.83 88.46,-28.4 88.46,-78.59zm-702.86 -9262.54c0,74.76 92.82,105.61 142,49.97 39.68,-44.86 161.89,-267.53 8.61,-267.53 -63.82,0 -70.38,46.26 -95.57,88.51 -15.74,26.39 -55.04,95.14 -55.04,129.05zm711.22 -1196.52c0,82.15 94.08,116.54 143.9,60.24 7.67,-8.66 18.3,-27.74 27,-39.96 44.76,-62.91 80.14,-82.1 80.14,-145.79 0,-46.27 -37.73,-75.31 -83.68,-75.31 -61.71,0 -167.36,190.24 -167.36,200.82zm16785.11 7128.89c34.68,0 60.85,-25.62 73.21,-52.3 8.23,-17.77 40.77,-177.09 29.22,-208.52 -23.16,-63.07 -116.2,-85.26 -149.8,-4.1 -7.63,18.44 -40.15,179.44 -30,207.73 10.04,28 44.03,57.19 77.37,57.19zm-13714.24 -9890.09c0,52.52 39.52,92.05 92.03,92.05 18.88,0 96.22,-47.72 117.2,-58.53 171.75,-88.45 64.89,-175.75 16.69,-175.75 -47.74,0 -75.75,22.16 -136.57,55.88 -25.52,14.14 -89.35,48.61 -89.35,86.35zm6275.59 -995.69c0,27.62 -2.69,46.98 29.72,70.67 20.2,14.75 37.54,15.97 62.79,20.88 39.97,7.78 217.07,72.81 217.07,-58.08 0,-53.71 -52.42,-73.43 -93.95,-81.77 -60.83,-12.22 -215.63,-70.25 -215.63,48.3zm-2911.88 18307.53c0,-87.62 -72.57,-86.2 -153.13,-97.9 -34.43,-5 -79.81,-17.12 -109.03,-5.67 -67.76,26.53 -69.85,116.62 -7.31,147.11 3.5,1.71 269.47,85.57 269.47,-43.54zm1991.45 -18433.04c0,88.14 84.57,88.03 150.61,92.04 29.96,1.83 156.78,38.31 163.78,-69.03 5.8,-88.98 -90.07,-87.12 -146.79,-90.2 -15.56,-0.84 -167.6,-40.51 -167.6,67.19zm-4091.68 17931.01c0,60.98 36.34,73.56 90.96,93.12 46.46,16.64 144.35,69.28 191.51,21.99 50.65,-50.79 27.74,-115.66 -53.22,-143.55 -57.93,-19.96 -102.52,-46.87 -153.94,-46.87 -41.36,0 -75.31,33.95 -75.31,75.31zm7614.37 -518.77c0,93.03 69.04,116.53 151.11,67.42 32.06,-19.18 150.12,-64.79 150.12,-117.62 0,-52.52 -39.52,-92.05 -92.03,-92.05 -2.65,0 -209.2,85.93 -209.2,142.25zm2217.39 -14701.25c0,39.57 26.03,55.85 48.07,77.43 37.4,36.63 115.55,163.8 195.79,91.23 79.77,-72.14 -43.63,-168.17 -95.04,-217.09 -24.88,-23.68 -56.53,-40.53 -91.53,-28.95 -32.32,10.7 -57.29,37.39 -57.29,77.38zm903.67 11998.63c0,54.16 21.86,92.04 83.68,92.04 61.71,0 167.36,-190.24 167.36,-200.82 0,-82.15 -94.08,-116.54 -143.9,-60.24 -25.77,29.09 -107.14,141.86 -107.14,169.02zm-16525.7 -3698.33c29.17,0 60.13,-32.62 68.99,-57.2 0.04,-0.08 8.05,-260.75 -102.46,-260.75 -32.81,0 -64.5,28.32 -74.86,51.23 -14.61,32.35 -0.16,76.27 5.53,110.12 13.24,78.67 12.07,156.6 102.8,156.6zm18266.13 -3221.39c32.95,0 64.33,-28.28 74.76,-51.15 16.24,-35.59 0.34,-76.75 -5.53,-110.1 -13.78,-78.41 -11.12,-156.7 -102.7,-156.7 -29.17,0 -60.13,32.62 -68.99,57.2 -0.04,0.08 -8.05,260.75 102.46,260.75zm-7923.97 -7739.7c0,87.62 72.57,86.2 153.13,97.9 34.2,4.97 157.6,36.33 162.59,-65.36 4.3,-87.47 -103.93,-90.16 -150.8,-97.05 -73.51,-10.84 -164.92,-21.56 -164.92,64.51zm7120.7 5288.1c0,69.09 10.42,55.22 35.89,114.72 12.05,28.17 26.24,68.76 42.5,91.38 45.65,63.53 147.53,24.91 147.53,-47.13 0,-16.59 -43,-111.3 -52.89,-131.19 -8.62,-17.32 -22.24,-48.71 -31.44,-60.6 -52.49,-67.87 -141.59,-14.42 -141.59,32.82zm-7120.7 13086.37c0,105.26 113.73,80.19 157.59,73.92 73.4,-10.47 154.55,-11.94 157.99,-91.73 4.51,-104.91 -118.52,-78.05 -155.15,-72.79 -68.55,9.84 -160.43,9.64 -160.43,90.6zm-2451.66 -18366.1c0,-105.26 -113.73,-80.19 -157.59,-73.92 -73.64,10.51 -154.3,11.85 -157.9,91.64 -4.69,104.1 113.26,78.88 155.06,72.88 68.55,-9.84 160.43,-9.64 160.43,-90.6zm5514.14 995.69c0,56.44 24.53,64.74 86.46,97.64 22.97,12.2 105.08,61.35 122.74,61.35 82.92,0 116.48,-96.68 60.22,-143.88 -19.81,-16.61 -147.47,-90.4 -177.37,-90.4 -51.17,0 -92.05,21.76 -92.05,75.29zm-1916.14 -702.84c55.22,0 142.8,-127.25 -16.55,-167.52 -35.46,-8.96 -114.56,-33.29 -150.79,-33.29 -62.18,0 -104.44,102.97 -38.91,147.67 18.21,12.41 175.72,53.14 206.25,53.14zm-6752.53 17152.85c42.15,0 92.05,-6.27 92.05,-83.66 0,-48.99 -37.81,-63.43 -86.46,-89.27 -22.97,-12.2 -105.08,-61.35 -122.74,-61.35 -82.92,0 -116.48,96.68 -60.22,143.88 19.81,16.61 147.47,90.4 177.37,90.4zm6593.55 828.36c24.29,0 114.53,-26.22 142.43,-33.29 160.74,-40.7 76.49,-167.52 16.55,-167.52 -36.77,0 -181.52,38.47 -204.94,54.45 -69.23,47.23 -23.14,146.36 45.96,146.36zm6133.34 -5212.79c0,24.72 -2.36,39.35 19.8,63.9 108.63,120.34 206.12,-172.55 206.12,-197.77 0,-48.77 -97.26,-163.09 -172.99,2.72 -11.89,26.05 -52.93,110.19 -52.93,131.15zm-8501.33 5396.87c0,60.8 42.87,78.99 95.68,83.68l113.51 0c144.29,0 121.22,-167.35 16.73,-167.35 -97.12,0 -225.92,-22.96 -225.92,83.67zm0 -18558.55c0,115.24 100.8,92.04 225.92,92.04 103.15,0 129.14,-167.35 -16.73,-167.35l-110.89 0c-53.21,4.25 -98.3,20.65 -98.3,75.31zm-2292.68 18257.33c0,93.5 219.59,117.14 242.65,117.14 62.18,0 104.44,-102.97 38.91,-147.67 -18.21,-12.41 -175.72,-53.14 -206.25,-53.14 -34.3,0 -75.31,48.2 -75.31,83.67zm2447.48 -17992.86c4981.05,0 9018.99,4037.94 9018.99,9018.99 0,4981.05 -4037.94,9018.99 -9018.99,9018.99 -4981.05,0 -9018.99,-4037.94 -9018.99,-9018.99 0,-4981.05 4037.94,-9018.99 9018.99,-9018.99z"/>
 </g>
</svg>
